<?xml version="1.0" encoding="UTF-8" standalone="no"?>
<!DOCTYPE svg PUBLIC "-//W3C//DTD SVG 1.1//EN"
 "http://www.w3.org/Graphics/SVG/1.1/DTD/svg11.dtd">
<!-- Generated by graphviz version 2.43.0 (0)
 -->
<!-- Title: G Pages: 1 -->
<svg width="332pt" height="189pt"
 viewBox="0.00 0.00 332.20 189.20" xmlns="http://www.w3.org/2000/svg" xmlns:xlink="http://www.w3.org/1999/xlink">
<g id="graph0" class="graph" transform="scale(1 1) rotate(0) translate(21.6 167.6)">
<title>G</title>
<polygon fill="#111111" stroke="transparent" points="-21.6,21.6 -21.6,-167.6 310.6,-167.6 310.6,21.6 -21.6,21.6"/>
<!-- app/globals.css -->
<g id="node1" class="node">
<title>app/globals.css</title>
<path fill="none" stroke="#cfffac" d="M108.33,-23C108.33,-23 13.67,-23 13.67,-23 9.83,-23 6,-19.17 6,-15.33 6,-15.33 6,-7.67 6,-7.67 6,-3.83 9.83,0 13.67,0 13.67,0 108.33,0 108.33,0 112.17,0 116,-3.83 116,-7.67 116,-7.67 116,-15.33 116,-15.33 116,-19.17 112.17,-23 108.33,-23"/>
<text text-anchor="middle" x="61" y="-7.8" font-family="Arial" font-size="14.00" fill="#cfffac">app/globals.css</text>
</g>
<!-- src/app/globals.css -->
<g id="node2" class="node">
<title>src/app/globals.css</title>
<path fill="none" stroke="#cfffac" d="M281.33,-64C281.33,-64 165.67,-64 165.67,-64 161.83,-64 158,-60.17 158,-56.33 158,-56.33 158,-48.67 158,-48.67 158,-44.83 161.83,-41 165.67,-41 165.67,-41 281.33,-41 281.33,-41 285.17,-41 289,-44.83 289,-48.67 289,-48.67 289,-56.33 289,-56.33 289,-60.17 285.17,-64 281.33,-64"/>
<text text-anchor="middle" x="223.5" y="-48.8" font-family="Arial" font-size="14.00" fill="#cfffac">src/app/globals.css</text>
</g>
<!-- src/app/layout.tsx -->
<g id="node3" class="node">
<title>src/app/layout.tsx</title>
<path fill="none" stroke="#c6c5fe" d="M114.33,-64C114.33,-64 7.67,-64 7.67,-64 3.83,-64 0,-60.17 0,-56.33 0,-56.33 0,-48.67 0,-48.67 0,-44.83 3.83,-41 7.67,-41 7.67,-41 114.33,-41 114.33,-41 118.17,-41 122,-44.83 122,-48.67 122,-48.67 122,-56.33 122,-56.33 122,-60.17 118.17,-64 114.33,-64"/>
<text text-anchor="middle" x="61" y="-48.8" font-family="Arial" font-size="14.00" fill="#c6c5fe">src/app/layout.tsx</text>
</g>
<!-- src/app/layout.tsx&#45;&gt;src/app/globals.css -->
<g id="edge1" class="edge">
<title>src/app/layout.tsx&#45;&gt;src/app/globals.css</title>
<path fill="none" stroke="#757575" d="M122.22,-52.5C130.6,-52.5 139.28,-52.5 147.88,-52.5"/>
<polygon fill="#757575" stroke="#757575" points="147.91,-56 157.91,-52.5 147.91,-49 147.91,-56"/>
</g>
<!-- src/app/page.tsx -->
<g id="node4" class="node">
<title>src/app/page.tsx</title>
<path fill="none" stroke="#cfffac" d="M111.33,-105C111.33,-105 10.67,-105 10.67,-105 6.83,-105 3,-101.17 3,-97.33 3,-97.33 3,-89.67 3,-89.67 3,-85.83 6.83,-82 10.67,-82 10.67,-82 111.33,-82 111.33,-82 115.17,-82 119,-85.83 119,-89.67 119,-89.67 119,-97.33 119,-97.33 119,-101.17 115.17,-105 111.33,-105"/>
<text text-anchor="middle" x="61" y="-89.8" font-family="Arial" font-size="14.00" fill="#cfffac">src/app/page.tsx</text>
</g>
<!-- src/lib/utils.ts -->
<g id="node5" class="node">
<title>src/lib/utils.ts</title>
<path fill="none" stroke="#cfffac" d="M100.33,-146C100.33,-146 21.67,-146 21.67,-146 17.83,-146 14,-142.17 14,-138.33 14,-138.33 14,-130.67 14,-130.67 14,-126.83 17.83,-123 21.67,-123 21.67,-123 100.33,-123 100.33,-123 104.17,-123 108,-126.83 108,-130.67 108,-130.67 108,-138.33 108,-138.33 108,-142.17 104.17,-146 100.33,-146"/>
<text text-anchor="middle" x="61" y="-130.8" font-family="Arial" font-size="14.00" fill="#cfffac">src/lib/utils.ts</text>
</g>
</g>
</svg>
