<?xml version="1.0" encoding="UTF-8" standalone="no"?>
<!DOCTYPE svg PUBLIC "-//W3C//DTD SVG 1.1//EN"
 "http://www.w3.org/Graphics/SVG/1.1/DTD/svg11.dtd">
<!-- Generated by graphviz version 2.43.0 (0)
 -->
<!-- Title: G Pages: 1 -->
<svg width="1440pt" height="1624pt"
 viewBox="0.00 0.00 1440.20 1624.20" xmlns="http://www.w3.org/2000/svg" xmlns:xlink="http://www.w3.org/1999/xlink">
<g id="graph0" class="graph" transform="scale(1 1) rotate(0) translate(21.6 1602.6)">
<title>G</title>
<polygon fill="#111111" stroke="transparent" points="-21.6,21.6 -21.6,-1602.6 1418.6,-1602.6 1418.6,21.6 -21.6,21.6"/>
<!-- src/app/(app)/components/init&#45;state.tsx -->
<g id="node1" class="node">
<title>src/app/(app)/components/init&#45;state.tsx</title>
<path fill="none" stroke="#cfffac" d="M596.83,-23C596.83,-23 362.17,-23 362.17,-23 358.33,-23 354.5,-19.17 354.5,-15.33 354.5,-15.33 354.5,-7.67 354.5,-7.67 354.5,-3.83 358.33,0 362.17,0 362.17,0 596.83,0 596.83,0 600.67,0 604.5,-3.83 604.5,-7.67 604.5,-7.67 604.5,-15.33 604.5,-15.33 604.5,-19.17 600.67,-23 596.83,-23"/>
<text text-anchor="middle" x="479.5" y="-7.8" font-family="Arial" font-size="14.00" fill="#cfffac">src/app/(app)/components/init&#45;state.tsx</text>
</g>
<!-- src/app/(app)/components/navbar&#45;logout.tsx -->
<g id="node2" class="node">
<title>src/app/(app)/components/navbar&#45;logout.tsx</title>
<path fill="none" stroke="#cfffac" d="M985.33,-64C985.33,-64 719.67,-64 719.67,-64 715.83,-64 712,-60.17 712,-56.33 712,-56.33 712,-48.67 712,-48.67 712,-44.83 715.83,-41 719.67,-41 719.67,-41 985.33,-41 985.33,-41 989.17,-41 993,-44.83 993,-48.67 993,-48.67 993,-56.33 993,-56.33 993,-60.17 989.17,-64 985.33,-64"/>
<text text-anchor="middle" x="852.5" y="-48.8" font-family="Arial" font-size="14.00" fill="#cfffac">src/app/(app)/components/navbar&#45;logout.tsx</text>
</g>
<!-- src/app/(app)/components/navbar&#45;user&#45;dropdown.tsx -->
<g id="node3" class="node">
<title>src/app/(app)/components/navbar&#45;user&#45;dropdown.tsx</title>
<path fill="none" stroke="#c6c5fe" d="M639.33,-64C639.33,-64 319.67,-64 319.67,-64 315.83,-64 312,-60.17 312,-56.33 312,-56.33 312,-48.67 312,-48.67 312,-44.83 315.83,-41 319.67,-41 319.67,-41 639.33,-41 639.33,-41 643.17,-41 647,-44.83 647,-48.67 647,-48.67 647,-56.33 647,-56.33 647,-60.17 643.17,-64 639.33,-64"/>
<text text-anchor="middle" x="479.5" y="-48.8" font-family="Arial" font-size="14.00" fill="#c6c5fe">src/app/(app)/components/navbar&#45;user&#45;dropdown.tsx</text>
</g>
<!-- src/app/(app)/components/navbar&#45;user&#45;dropdown.tsx&#45;&gt;src/app/(app)/components/navbar&#45;logout.tsx -->
<g id="edge1" class="edge">
<title>src/app/(app)/components/navbar&#45;user&#45;dropdown.tsx&#45;&gt;src/app/(app)/components/navbar&#45;logout.tsx</title>
<path fill="none" stroke="#757575" d="M647.01,-52.5C665.21,-52.5 683.66,-52.5 701.64,-52.5"/>
<polygon fill="#757575" stroke="#757575" points="701.87,-56 711.87,-52.5 701.87,-49 701.87,-56"/>
</g>
<!-- src/components/profile&#45;avatar.tsx -->
<g id="node4" class="node">
<title>src/components/profile&#45;avatar.tsx</title>
<path fill="none" stroke="#c6c5fe" d="M952.33,-105C952.33,-105 752.67,-105 752.67,-105 748.83,-105 745,-101.17 745,-97.33 745,-97.33 745,-89.67 745,-89.67 745,-85.83 748.83,-82 752.67,-82 752.67,-82 952.33,-82 952.33,-82 956.17,-82 960,-85.83 960,-89.67 960,-89.67 960,-97.33 960,-97.33 960,-101.17 956.17,-105 952.33,-105"/>
<text text-anchor="middle" x="852.5" y="-89.8" font-family="Arial" font-size="14.00" fill="#c6c5fe">src/components/profile&#45;avatar.tsx</text>
</g>
<!-- src/app/(app)/components/navbar&#45;user&#45;dropdown.tsx&#45;&gt;src/components/profile&#45;avatar.tsx -->
<g id="edge2" class="edge">
<title>src/app/(app)/components/navbar&#45;user&#45;dropdown.tsx&#45;&gt;src/components/profile&#45;avatar.tsx</title>
<path fill="none" stroke="#757575" d="M584.83,-64.03C632.25,-69.27 688.49,-75.49 737.07,-80.85"/>
<polygon fill="#757575" stroke="#757575" points="736.99,-84.37 747.31,-81.99 737.75,-77.41 736.99,-84.37"/>
</g>
<!-- src/components/ui/use&#45;toast.ts -->
<g id="node32" class="node">
<title>src/components/ui/use&#45;toast.ts</title>
<path fill="none" stroke="#cfffac" d="M1246.33,-105C1246.33,-105 1061.67,-105 1061.67,-105 1057.83,-105 1054,-101.17 1054,-97.33 1054,-97.33 1054,-89.67 1054,-89.67 1054,-85.83 1057.83,-82 1061.67,-82 1061.67,-82 1246.33,-82 1246.33,-82 1250.17,-82 1254,-85.83 1254,-89.67 1254,-89.67 1254,-97.33 1254,-97.33 1254,-101.17 1250.17,-105 1246.33,-105"/>
<text text-anchor="middle" x="1154" y="-89.8" font-family="Arial" font-size="14.00" fill="#cfffac">src/components/ui/use&#45;toast.ts</text>
</g>
<!-- src/components/profile&#45;avatar.tsx&#45;&gt;src/components/ui/use&#45;toast.ts -->
<g id="edge20" class="edge">
<title>src/components/profile&#45;avatar.tsx&#45;&gt;src/components/ui/use&#45;toast.ts</title>
<path fill="none" stroke="#757575" d="M960.36,-93.5C987.32,-93.5 1016.31,-93.5 1043.4,-93.5"/>
<polygon fill="#757575" stroke="#757575" points="1043.69,-97 1053.69,-93.5 1043.69,-90 1043.69,-97"/>
</g>
<!-- src/app/(app)/components/navbar.tsx -->
<g id="node5" class="node">
<title>src/app/(app)/components/navbar.tsx</title>
<path fill="none" stroke="#c6c5fe" d="M247.83,-64C247.83,-64 24.17,-64 24.17,-64 20.33,-64 16.5,-60.17 16.5,-56.33 16.5,-56.33 16.5,-48.67 16.5,-48.67 16.5,-44.83 20.33,-41 24.17,-41 24.17,-41 247.83,-41 247.83,-41 251.67,-41 255.5,-44.83 255.5,-48.67 255.5,-48.67 255.5,-56.33 255.5,-56.33 255.5,-60.17 251.67,-64 247.83,-64"/>
<text text-anchor="middle" x="136" y="-48.8" font-family="Arial" font-size="14.00" fill="#c6c5fe">src/app/(app)/components/navbar.tsx</text>
</g>
<!-- src/app/(app)/components/navbar.tsx&#45;&gt;src/app/(app)/components/navbar&#45;user&#45;dropdown.tsx -->
<g id="edge3" class="edge">
<title>src/app/(app)/components/navbar.tsx&#45;&gt;src/app/(app)/components/navbar&#45;user&#45;dropdown.tsx</title>
<path fill="none" stroke="#757575" d="M255.96,-52.5C270.8,-52.5 286.22,-52.5 301.71,-52.5"/>
<polygon fill="#757575" stroke="#757575" points="301.89,-56 311.89,-52.5 301.89,-49 301.89,-56"/>
</g>
<!-- src/app/(app)/layout.tsx -->
<g id="node6" class="node">
<title>src/app/(app)/layout.tsx</title>
<path fill="none" stroke="#c6c5fe" d="M206.83,-23C206.83,-23 65.17,-23 65.17,-23 61.33,-23 57.5,-19.17 57.5,-15.33 57.5,-15.33 57.5,-7.67 57.5,-7.67 57.5,-3.83 61.33,0 65.17,0 65.17,0 206.83,0 206.83,0 210.67,0 214.5,-3.83 214.5,-7.67 214.5,-7.67 214.5,-15.33 214.5,-15.33 214.5,-19.17 210.67,-23 206.83,-23"/>
<text text-anchor="middle" x="136" y="-7.8" font-family="Arial" font-size="14.00" fill="#c6c5fe">src/app/(app)/layout.tsx</text>
</g>
<!-- src/app/(app)/layout.tsx&#45;&gt;src/app/(app)/components/init&#45;state.tsx -->
<g id="edge4" class="edge">
<title>src/app/(app)/layout.tsx&#45;&gt;src/app/(app)/components/init&#45;state.tsx</title>
<path fill="none" stroke="#757575" d="M214.92,-11.5C253.18,-11.5 300.38,-11.5 344.21,-11.5"/>
<polygon fill="#757575" stroke="#757575" points="344.38,-15 354.38,-11.5 344.38,-8 344.38,-15"/>
</g>
<!-- src/app/(app)/page.tsx -->
<g id="node7" class="node">
<title>src/app/(app)/page.tsx</title>
<path fill="none" stroke="#cfffac" d="M203.83,-249C203.83,-249 68.17,-249 68.17,-249 64.33,-249 60.5,-245.17 60.5,-241.33 60.5,-241.33 60.5,-233.67 60.5,-233.67 60.5,-229.83 64.33,-226 68.17,-226 68.17,-226 203.83,-226 203.83,-226 207.67,-226 211.5,-229.83 211.5,-233.67 211.5,-233.67 211.5,-241.33 211.5,-241.33 211.5,-245.17 207.67,-249 203.83,-249"/>
<text text-anchor="middle" x="136" y="-233.8" font-family="Arial" font-size="14.00" fill="#cfffac">src/app/(app)/page.tsx</text>
</g>
<!-- src/app/(app)/profile/(settings)/page.tsx -->
<g id="node8" class="node">
<title>src/app/(app)/profile/(settings)/page.tsx</title>
<path fill="none" stroke="#c6c5fe" d="M253.83,-187C253.83,-187 18.17,-187 18.17,-187 14.33,-187 10.5,-183.17 10.5,-179.33 10.5,-179.33 10.5,-171.67 10.5,-171.67 10.5,-167.83 14.33,-164 18.17,-164 18.17,-164 253.83,-164 253.83,-164 257.67,-164 261.5,-167.83 261.5,-171.67 261.5,-171.67 261.5,-179.33 261.5,-179.33 261.5,-183.17 257.67,-187 253.83,-187"/>
<text text-anchor="middle" x="136" y="-171.8" font-family="Arial" font-size="14.00" fill="#c6c5fe">src/app/(app)/profile/(settings)/page.tsx</text>
</g>
<!-- src/app/(app)/profile/components/email&#45;form.tsx -->
<g id="node9" class="node">
<title>src/app/(app)/profile/components/email&#45;form.tsx</title>
<path fill="none" stroke="#cfffac" d="M624.33,-228C624.33,-228 334.67,-228 334.67,-228 330.83,-228 327,-224.17 327,-220.33 327,-220.33 327,-212.67 327,-212.67 327,-208.83 330.83,-205 334.67,-205 334.67,-205 624.33,-205 624.33,-205 628.17,-205 632,-208.83 632,-212.67 632,-212.67 632,-220.33 632,-220.33 632,-224.17 628.17,-228 624.33,-228"/>
<text text-anchor="middle" x="479.5" y="-212.8" font-family="Arial" font-size="14.00" fill="#cfffac">src/app/(app)/profile/components/email&#45;form.tsx</text>
</g>
<!-- src/app/(app)/profile/(settings)/page.tsx&#45;&gt;src/app/(app)/profile/components/email&#45;form.tsx -->
<g id="edge5" class="edge">
<title>src/app/(app)/profile/(settings)/page.tsx&#45;&gt;src/app/(app)/profile/components/email&#45;form.tsx</title>
<path fill="none" stroke="#757575" d="M233.04,-187.03C276.5,-192.25 328.02,-198.43 372.6,-203.79"/>
<polygon fill="#757575" stroke="#757575" points="372.25,-207.27 382.59,-204.99 373.08,-200.32 372.25,-207.27"/>
</g>
<!-- src/app/(app)/profile/components/password&#45;form.tsx -->
<g id="node10" class="node">
<title>src/app/(app)/profile/components/password&#45;form.tsx</title>
<path fill="none" stroke="#cfffac" d="M636.33,-187C636.33,-187 322.67,-187 322.67,-187 318.83,-187 315,-183.17 315,-179.33 315,-179.33 315,-171.67 315,-171.67 315,-167.83 318.83,-164 322.67,-164 322.67,-164 636.33,-164 636.33,-164 640.17,-164 644,-167.83 644,-171.67 644,-171.67 644,-179.33 644,-179.33 644,-183.17 640.17,-187 636.33,-187"/>
<text text-anchor="middle" x="479.5" y="-171.8" font-family="Arial" font-size="14.00" fill="#cfffac">src/app/(app)/profile/components/password&#45;form.tsx</text>
</g>
<!-- src/app/(app)/profile/(settings)/page.tsx&#45;&gt;src/app/(app)/profile/components/password&#45;form.tsx -->
<g id="edge6" class="edge">
<title>src/app/(app)/profile/(settings)/page.tsx&#45;&gt;src/app/(app)/profile/components/password&#45;form.tsx</title>
<path fill="none" stroke="#757575" d="M261.74,-175.5C275.75,-175.5 290.21,-175.5 304.69,-175.5"/>
<polygon fill="#757575" stroke="#757575" points="304.72,-179 314.72,-175.5 304.72,-172 304.72,-179"/>
</g>
<!-- src/app/(app)/profile/components/profile&#45;form.tsx -->
<g id="node11" class="node">
<title>src/app/(app)/profile/components/profile&#45;form.tsx</title>
<path fill="none" stroke="#c6c5fe" d="M625.83,-105C625.83,-105 333.17,-105 333.17,-105 329.33,-105 325.5,-101.17 325.5,-97.33 325.5,-97.33 325.5,-89.67 325.5,-89.67 325.5,-85.83 329.33,-82 333.17,-82 333.17,-82 625.83,-82 625.83,-82 629.67,-82 633.5,-85.83 633.5,-89.67 633.5,-89.67 633.5,-97.33 633.5,-97.33 633.5,-101.17 629.67,-105 625.83,-105"/>
<text text-anchor="middle" x="479.5" y="-89.8" font-family="Arial" font-size="14.00" fill="#c6c5fe">src/app/(app)/profile/components/profile&#45;form.tsx</text>
</g>
<!-- src/app/(app)/profile/(settings)/page.tsx&#45;&gt;src/app/(app)/profile/components/profile&#45;form.tsx -->
<g id="edge7" class="edge">
<title>src/app/(app)/profile/(settings)/page.tsx&#45;&gt;src/app/(app)/profile/components/profile&#45;form.tsx</title>
<path fill="none" stroke="#757575" d="M163.08,-163.89C196.12,-149.69 255.14,-126 308,-113.5 318.88,-110.93 330.23,-108.68 341.68,-106.71"/>
<polygon fill="#757575" stroke="#757575" points="342.46,-110.13 351.76,-105.06 341.33,-103.22 342.46,-110.13"/>
</g>
<!-- src/app/(app)/profile/components/tokens&#45;table.tsx -->
<g id="node12" class="node">
<title>src/app/(app)/profile/components/tokens&#45;table.tsx</title>
<path fill="none" stroke="#c6c5fe" d="M628.33,-146C628.33,-146 330.67,-146 330.67,-146 326.83,-146 323,-142.17 323,-138.33 323,-138.33 323,-130.67 323,-130.67 323,-126.83 326.83,-123 330.67,-123 330.67,-123 628.33,-123 628.33,-123 632.17,-123 636,-126.83 636,-130.67 636,-130.67 636,-138.33 636,-138.33 636,-142.17 632.17,-146 628.33,-146"/>
<text text-anchor="middle" x="479.5" y="-130.8" font-family="Arial" font-size="14.00" fill="#c6c5fe">src/app/(app)/profile/components/tokens&#45;table.tsx</text>
</g>
<!-- src/app/(app)/profile/(settings)/page.tsx&#45;&gt;src/app/(app)/profile/components/tokens&#45;table.tsx -->
<g id="edge8" class="edge">
<title>src/app/(app)/profile/(settings)/page.tsx&#45;&gt;src/app/(app)/profile/components/tokens&#45;table.tsx</title>
<path fill="none" stroke="#757575" d="M230.17,-163.96C255.43,-160.86 282.76,-157.53 308,-154.5 327.84,-152.12 348.97,-149.61 369.37,-147.21"/>
<polygon fill="#757575" stroke="#757575" points="369.79,-150.69 379.32,-146.04 368.98,-143.73 369.79,-150.69"/>
</g>
<!-- src/app/(app)/profile/components/username&#45;form.tsx -->
<g id="node13" class="node">
<title>src/app/(app)/profile/components/username&#45;form.tsx</title>
<path fill="none" stroke="#cfffac" d="M637.83,-269C637.83,-269 321.17,-269 321.17,-269 317.33,-269 313.5,-265.17 313.5,-261.33 313.5,-261.33 313.5,-253.67 313.5,-253.67 313.5,-249.83 317.33,-246 321.17,-246 321.17,-246 637.83,-246 637.83,-246 641.67,-246 645.5,-249.83 645.5,-253.67 645.5,-253.67 645.5,-261.33 645.5,-261.33 645.5,-265.17 641.67,-269 637.83,-269"/>
<text text-anchor="middle" x="479.5" y="-253.8" font-family="Arial" font-size="14.00" fill="#cfffac">src/app/(app)/profile/components/username&#45;form.tsx</text>
</g>
<!-- src/app/(app)/profile/(settings)/page.tsx&#45;&gt;src/app/(app)/profile/components/username&#45;form.tsx -->
<g id="edge9" class="edge">
<title>src/app/(app)/profile/(settings)/page.tsx&#45;&gt;src/app/(app)/profile/components/username&#45;form.tsx</title>
<path fill="none" stroke="#757575" d="M183.79,-187.08C210.17,-194.25 243.47,-204.41 272,-216.5 288.85,-223.64 290.6,-230.83 308,-236.5 316.54,-239.28 325.43,-241.7 334.47,-243.8"/>
<polygon fill="#757575" stroke="#757575" points="333.8,-247.24 344.32,-245.96 335.3,-240.4 333.8,-247.24"/>
</g>
<!-- src/app/(app)/profile/components/profile&#45;form.tsx&#45;&gt;src/components/profile&#45;avatar.tsx -->
<g id="edge11" class="edge">
<title>src/app/(app)/profile/components/profile&#45;form.tsx&#45;&gt;src/components/profile&#45;avatar.tsx</title>
<path fill="none" stroke="#757575" d="M633.54,-93.5C667.31,-93.5 702.56,-93.5 734.63,-93.5"/>
<polygon fill="#757575" stroke="#757575" points="734.92,-97 744.92,-93.5 734.92,-90 734.92,-97"/>
</g>
<!-- src/app/(app)/profile/components/get&#45;device&#45;icon.tsx -->
<g id="node16" class="node">
<title>src/app/(app)/profile/components/get&#45;device&#45;icon.tsx</title>
<path fill="none" stroke="#cfffac" d="M1010.33,-146C1010.33,-146 694.67,-146 694.67,-146 690.83,-146 687,-142.17 687,-138.33 687,-138.33 687,-130.67 687,-130.67 687,-126.83 690.83,-123 694.67,-123 694.67,-123 1010.33,-123 1010.33,-123 1014.17,-123 1018,-126.83 1018,-130.67 1018,-130.67 1018,-138.33 1018,-138.33 1018,-142.17 1014.17,-146 1010.33,-146"/>
<text text-anchor="middle" x="852.5" y="-130.8" font-family="Arial" font-size="14.00" fill="#cfffac">src/app/(app)/profile/components/get&#45;device&#45;icon.tsx</text>
</g>
<!-- src/app/(app)/profile/components/tokens&#45;table.tsx&#45;&gt;src/app/(app)/profile/components/get&#45;device&#45;icon.tsx -->
<g id="edge12" class="edge">
<title>src/app/(app)/profile/components/tokens&#45;table.tsx&#45;&gt;src/app/(app)/profile/components/get&#45;device&#45;icon.tsx</title>
<path fill="none" stroke="#757575" d="M636.22,-134.5C649.58,-134.5 663.14,-134.5 676.63,-134.5"/>
<polygon fill="#757575" stroke="#757575" points="676.93,-138 686.93,-134.5 676.93,-131 676.93,-138"/>
</g>
<!-- src/app/(app)/profile/appearance/page.tsx -->
<g id="node14" class="node">
<title>src/app/(app)/profile/appearance/page.tsx</title>
<path fill="none" stroke="#c6c5fe" d="M261.33,-310C261.33,-310 10.67,-310 10.67,-310 6.83,-310 3,-306.17 3,-302.33 3,-302.33 3,-294.67 3,-294.67 3,-290.83 6.83,-287 10.67,-287 10.67,-287 261.33,-287 261.33,-287 265.17,-287 269,-290.83 269,-294.67 269,-294.67 269,-302.33 269,-302.33 269,-306.17 265.17,-310 261.33,-310"/>
<text text-anchor="middle" x="136" y="-294.8" font-family="Arial" font-size="14.00" fill="#c6c5fe">src/app/(app)/profile/appearance/page.tsx</text>
</g>
<!-- src/app/(app)/profile/components/appearance&#45;form.tsx -->
<g id="node15" class="node">
<title>src/app/(app)/profile/components/appearance&#45;form.tsx</title>
<path fill="none" stroke="#cfffac" d="M643.33,-310C643.33,-310 315.67,-310 315.67,-310 311.83,-310 308,-306.17 308,-302.33 308,-302.33 308,-294.67 308,-294.67 308,-290.83 311.83,-287 315.67,-287 315.67,-287 643.33,-287 643.33,-287 647.17,-287 651,-290.83 651,-294.67 651,-294.67 651,-302.33 651,-302.33 651,-306.17 647.17,-310 643.33,-310"/>
<text text-anchor="middle" x="479.5" y="-294.8" font-family="Arial" font-size="14.00" fill="#cfffac">src/app/(app)/profile/components/appearance&#45;form.tsx</text>
</g>
<!-- src/app/(app)/profile/appearance/page.tsx&#45;&gt;src/app/(app)/profile/components/appearance&#45;form.tsx -->
<g id="edge10" class="edge">
<title>src/app/(app)/profile/appearance/page.tsx&#45;&gt;src/app/(app)/profile/components/appearance&#45;form.tsx</title>
<path fill="none" stroke="#757575" d="M269.03,-298.5C278.51,-298.5 288.15,-298.5 297.83,-298.5"/>
<polygon fill="#757575" stroke="#757575" points="297.93,-302 307.93,-298.5 297.93,-295 297.93,-302"/>
</g>
<!-- src/app/(app)/profile/components/sidebar&#45;nav.tsx -->
<g id="node17" class="node">
<title>src/app/(app)/profile/components/sidebar&#45;nav.tsx</title>
<path fill="none" stroke="#cfffac" d="M626.33,-351C626.33,-351 332.67,-351 332.67,-351 328.83,-351 325,-347.17 325,-343.33 325,-343.33 325,-335.67 325,-335.67 325,-331.83 328.83,-328 332.67,-328 332.67,-328 626.33,-328 626.33,-328 630.17,-328 634,-331.83 634,-335.67 634,-335.67 634,-343.33 634,-343.33 634,-347.17 630.17,-351 626.33,-351"/>
<text text-anchor="middle" x="479.5" y="-335.8" font-family="Arial" font-size="14.00" fill="#cfffac">src/app/(app)/profile/components/sidebar&#45;nav.tsx</text>
</g>
<!-- src/app/(app)/profile/layout.tsx -->
<g id="node18" class="node">
<title>src/app/(app)/profile/layout.tsx</title>
<path fill="none" stroke="#c6c5fe" d="M226.83,-351C226.83,-351 45.17,-351 45.17,-351 41.33,-351 37.5,-347.17 37.5,-343.33 37.5,-343.33 37.5,-335.67 37.5,-335.67 37.5,-331.83 41.33,-328 45.17,-328 45.17,-328 226.83,-328 226.83,-328 230.67,-328 234.5,-331.83 234.5,-335.67 234.5,-335.67 234.5,-343.33 234.5,-343.33 234.5,-347.17 230.67,-351 226.83,-351"/>
<text text-anchor="middle" x="136" y="-335.8" font-family="Arial" font-size="14.00" fill="#c6c5fe">src/app/(app)/profile/layout.tsx</text>
</g>
<!-- src/app/(app)/profile/layout.tsx&#45;&gt;src/app/(app)/profile/components/sidebar&#45;nav.tsx -->
<g id="edge13" class="edge">
<title>src/app/(app)/profile/layout.tsx&#45;&gt;src/app/(app)/profile/components/sidebar&#45;nav.tsx</title>
<path fill="none" stroke="#757575" d="M234.86,-339.5C259.87,-339.5 287.46,-339.5 314.8,-339.5"/>
<polygon fill="#757575" stroke="#757575" points="314.86,-343 324.86,-339.5 314.86,-336 314.86,-343"/>
</g>
<!-- src/app/(app)/roles/page.tsx -->
<g id="node19" class="node">
<title>src/app/(app)/roles/page.tsx</title>
<path fill="none" stroke="#cfffac" d="M220.33,-392C220.33,-392 51.67,-392 51.67,-392 47.83,-392 44,-388.17 44,-384.33 44,-384.33 44,-376.67 44,-376.67 44,-372.83 47.83,-369 51.67,-369 51.67,-369 220.33,-369 220.33,-369 224.17,-369 228,-372.83 228,-376.67 228,-376.67 228,-384.33 228,-384.33 228,-388.17 224.17,-392 220.33,-392"/>
<text text-anchor="middle" x="136" y="-376.8" font-family="Arial" font-size="14.00" fill="#cfffac">src/app/(app)/roles/page.tsx</text>
</g>
<!-- src/app/(app)/service&#45;accounts/page.tsx -->
<g id="node20" class="node">
<title>src/app/(app)/service&#45;accounts/page.tsx</title>
<path fill="none" stroke="#cfffac" d="M256.33,-433C256.33,-433 15.67,-433 15.67,-433 11.83,-433 8,-429.17 8,-425.33 8,-425.33 8,-417.67 8,-417.67 8,-413.83 11.83,-410 15.67,-410 15.67,-410 256.33,-410 256.33,-410 260.17,-410 264,-413.83 264,-417.67 264,-417.67 264,-425.33 264,-425.33 264,-429.17 260.17,-433 256.33,-433"/>
<text text-anchor="middle" x="136" y="-417.8" font-family="Arial" font-size="14.00" fill="#cfffac">src/app/(app)/service&#45;accounts/page.tsx</text>
</g>
<!-- src/app/auth/initialize/components/register&#45;form.tsx -->
<g id="node21" class="node">
<title>src/app/auth/initialize/components/register&#45;form.tsx</title>
<path fill="none" stroke="#c6c5fe" d="M633.33,-474C633.33,-474 325.67,-474 325.67,-474 321.83,-474 318,-470.17 318,-466.33 318,-466.33 318,-458.67 318,-458.67 318,-454.83 321.83,-451 325.67,-451 325.67,-451 633.33,-451 633.33,-451 637.17,-451 641,-454.83 641,-458.67 641,-458.67 641,-466.33 641,-466.33 641,-470.17 637.17,-474 633.33,-474"/>
<text text-anchor="middle" x="479.5" y="-458.8" font-family="Arial" font-size="14.00" fill="#c6c5fe">src/app/auth/initialize/components/register&#45;form.tsx</text>
</g>
<!-- src/components/ui/form&#45;field.tsx -->
<g id="node22" class="node">
<title>src/components/ui/form&#45;field.tsx</title>
<path fill="none" stroke="#cfffac" d="M949.33,-494C949.33,-494 755.67,-494 755.67,-494 751.83,-494 748,-490.17 748,-486.33 748,-486.33 748,-478.67 748,-478.67 748,-474.83 751.83,-471 755.67,-471 755.67,-471 949.33,-471 949.33,-471 953.17,-471 957,-474.83 957,-478.67 957,-478.67 957,-486.33 957,-486.33 957,-490.17 953.17,-494 949.33,-494"/>
<text text-anchor="middle" x="852.5" y="-478.8" font-family="Arial" font-size="14.00" fill="#cfffac">src/components/ui/form&#45;field.tsx</text>
</g>
<!-- src/app/auth/initialize/components/register&#45;form.tsx&#45;&gt;src/components/ui/form&#45;field.tsx -->
<g id="edge14" class="edge">
<title>src/app/auth/initialize/components/register&#45;form.tsx&#45;&gt;src/components/ui/form&#45;field.tsx</title>
<path fill="none" stroke="#757575" d="M641.07,-471.16C673.62,-472.91 707.21,-474.72 737.74,-476.37"/>
<polygon fill="#757575" stroke="#757575" points="737.8,-479.88 747.97,-476.92 738.17,-472.89 737.8,-479.88"/>
</g>
<!-- src/app/auth/initialize/layout.tsx -->
<g id="node23" class="node">
<title>src/app/auth/initialize/layout.tsx</title>
<path fill="none" stroke="#cfffac" d="M229.83,-556C229.83,-556 42.17,-556 42.17,-556 38.33,-556 34.5,-552.17 34.5,-548.33 34.5,-548.33 34.5,-540.67 34.5,-540.67 34.5,-536.83 38.33,-533 42.17,-533 42.17,-533 229.83,-533 229.83,-533 233.67,-533 237.5,-536.83 237.5,-540.67 237.5,-540.67 237.5,-548.33 237.5,-548.33 237.5,-552.17 233.67,-556 229.83,-556"/>
<text text-anchor="middle" x="136" y="-540.8" font-family="Arial" font-size="14.00" fill="#cfffac">src/app/auth/initialize/layout.tsx</text>
</g>
<!-- src/app/auth/initialize/page.tsx -->
<g id="node24" class="node">
<title>src/app/auth/initialize/page.tsx</title>
<path fill="none" stroke="#c6c5fe" d="M226.83,-474C226.83,-474 45.17,-474 45.17,-474 41.33,-474 37.5,-470.17 37.5,-466.33 37.5,-466.33 37.5,-458.67 37.5,-458.67 37.5,-454.83 41.33,-451 45.17,-451 45.17,-451 226.83,-451 226.83,-451 230.67,-451 234.5,-454.83 234.5,-458.67 234.5,-458.67 234.5,-466.33 234.5,-466.33 234.5,-470.17 230.67,-474 226.83,-474"/>
<text text-anchor="middle" x="136" y="-458.8" font-family="Arial" font-size="14.00" fill="#c6c5fe">src/app/auth/initialize/page.tsx</text>
</g>
<!-- src/app/auth/initialize/page.tsx&#45;&gt;src/app/auth/initialize/components/register&#45;form.tsx -->
<g id="edge15" class="edge">
<title>src/app/auth/initialize/page.tsx&#45;&gt;src/app/auth/initialize/components/register&#45;form.tsx</title>
<path fill="none" stroke="#757575" d="M234.86,-462.5C257.64,-462.5 282.55,-462.5 307.47,-462.5"/>
<polygon fill="#757575" stroke="#757575" points="307.76,-466 317.76,-462.5 307.76,-459 307.76,-466"/>
</g>
<!-- src/app/auth/login/components/login&#45;form.tsx -->
<g id="node25" class="node">
<title>src/app/auth/login/components/login&#45;form.tsx</title>
<path fill="none" stroke="#c6c5fe" d="M615.33,-515C615.33,-515 343.67,-515 343.67,-515 339.83,-515 336,-511.17 336,-507.33 336,-507.33 336,-499.67 336,-499.67 336,-495.83 339.83,-492 343.67,-492 343.67,-492 615.33,-492 615.33,-492 619.17,-492 623,-495.83 623,-499.67 623,-499.67 623,-507.33 623,-507.33 623,-511.17 619.17,-515 615.33,-515"/>
<text text-anchor="middle" x="479.5" y="-499.8" font-family="Arial" font-size="14.00" fill="#c6c5fe">src/app/auth/login/components/login&#45;form.tsx</text>
</g>
<!-- src/app/auth/login/components/login&#45;form.tsx&#45;&gt;src/components/ui/form&#45;field.tsx -->
<g id="edge16" class="edge">
<title>src/app/auth/login/components/login&#45;form.tsx&#45;&gt;src/components/ui/form&#45;field.tsx</title>
<path fill="none" stroke="#757575" d="M623.14,-495.43C661.13,-493.28 701.66,-490.98 737.87,-488.93"/>
<polygon fill="#757575" stroke="#757575" points="738.17,-492.42 747.96,-488.36 737.78,-485.43 738.17,-492.42"/>
</g>
<!-- src/app/auth/login/layout.tsx -->
<g id="node26" class="node">
<title>src/app/auth/login/layout.tsx</title>
<path fill="none" stroke="#cfffac" d="M220.33,-597C220.33,-597 51.67,-597 51.67,-597 47.83,-597 44,-593.17 44,-589.33 44,-589.33 44,-581.67 44,-581.67 44,-577.83 47.83,-574 51.67,-574 51.67,-574 220.33,-574 220.33,-574 224.17,-574 228,-577.83 228,-581.67 228,-581.67 228,-589.33 228,-589.33 228,-593.17 224.17,-597 220.33,-597"/>
<text text-anchor="middle" x="136" y="-581.8" font-family="Arial" font-size="14.00" fill="#cfffac">src/app/auth/login/layout.tsx</text>
</g>
<!-- src/app/auth/login/page.tsx -->
<g id="node27" class="node">
<title>src/app/auth/login/page.tsx</title>
<path fill="none" stroke="#c6c5fe" d="M217.33,-515C217.33,-515 54.67,-515 54.67,-515 50.83,-515 47,-511.17 47,-507.33 47,-507.33 47,-499.67 47,-499.67 47,-495.83 50.83,-492 54.67,-492 54.67,-492 217.33,-492 217.33,-492 221.17,-492 225,-495.83 225,-499.67 225,-499.67 225,-507.33 225,-507.33 225,-511.17 221.17,-515 217.33,-515"/>
<text text-anchor="middle" x="136" y="-499.8" font-family="Arial" font-size="14.00" fill="#c6c5fe">src/app/auth/login/page.tsx</text>
</g>
<!-- src/app/auth/login/page.tsx&#45;&gt;src/app/auth/login/components/login&#45;form.tsx -->
<g id="edge17" class="edge">
<title>src/app/auth/login/page.tsx&#45;&gt;src/app/auth/login/components/login&#45;form.tsx</title>
<path fill="none" stroke="#757575" d="M225.39,-503.5C256.06,-503.5 291.39,-503.5 325.73,-503.5"/>
<polygon fill="#757575" stroke="#757575" points="325.87,-507 335.87,-503.5 325.87,-500 325.87,-507"/>
</g>
<!-- src/app/globals.css -->
<g id="node28" class="node">
<title>src/app/globals.css</title>
<path fill="none" stroke="#cfffac" d="M537.33,-658C537.33,-658 421.67,-658 421.67,-658 417.83,-658 414,-654.17 414,-650.33 414,-650.33 414,-642.67 414,-642.67 414,-638.83 417.83,-635 421.67,-635 421.67,-635 537.33,-635 537.33,-635 541.17,-635 545,-638.83 545,-642.67 545,-642.67 545,-650.33 545,-650.33 545,-654.17 541.17,-658 537.33,-658"/>
<text text-anchor="middle" x="479.5" y="-642.8" font-family="Arial" font-size="14.00" fill="#cfffac">src/app/globals.css</text>
</g>
<!-- src/app/layout.tsx -->
<g id="node29" class="node">
<title>src/app/layout.tsx</title>
<path fill="none" stroke="#c6c5fe" d="M189.33,-638C189.33,-638 82.67,-638 82.67,-638 78.83,-638 75,-634.17 75,-630.33 75,-630.33 75,-622.67 75,-622.67 75,-618.83 78.83,-615 82.67,-615 82.67,-615 189.33,-615 189.33,-615 193.17,-615 197,-618.83 197,-622.67 197,-622.67 197,-630.33 197,-630.33 197,-634.17 193.17,-638 189.33,-638"/>
<text text-anchor="middle" x="136" y="-622.8" font-family="Arial" font-size="14.00" fill="#c6c5fe">src/app/layout.tsx</text>
</g>
<!-- src/app/layout.tsx&#45;&gt;src/app/globals.css -->
<g id="edge18" class="edge">
<title>src/app/layout.tsx&#45;&gt;src/app/globals.css</title>
<path fill="none" stroke="#757575" d="M197.27,-630.03C254.86,-633.4 341.83,-638.5 403.79,-642.12"/>
<polygon fill="#757575" stroke="#757575" points="403.71,-645.63 413.9,-642.72 404.12,-638.64 403.71,-645.63"/>
</g>
<!-- src/components/handle&#45;user.tsx -->
<g id="node30" class="node">
<title>src/components/handle&#45;user.tsx</title>
<path fill="none" stroke="#cfffac" d="M575.83,-617C575.83,-617 383.17,-617 383.17,-617 379.33,-617 375.5,-613.17 375.5,-609.33 375.5,-609.33 375.5,-601.67 375.5,-601.67 375.5,-597.83 379.33,-594 383.17,-594 383.17,-594 575.83,-594 575.83,-594 579.67,-594 583.5,-597.83 583.5,-601.67 583.5,-601.67 583.5,-609.33 583.5,-609.33 583.5,-613.17 579.67,-617 575.83,-617"/>
<text text-anchor="middle" x="479.5" y="-601.8" font-family="Arial" font-size="14.00" fill="#cfffac">src/components/handle&#45;user.tsx</text>
</g>
<!-- src/app/layout.tsx&#45;&gt;src/components/handle&#45;user.tsx -->
<g id="edge19" class="edge">
<title>src/app/layout.tsx&#45;&gt;src/components/handle&#45;user.tsx</title>
<path fill="none" stroke="#757575" d="M197.27,-622.79C243.69,-619.94 309.21,-615.91 365.33,-612.46"/>
<polygon fill="#757575" stroke="#757575" points="365.56,-615.95 375.33,-611.84 365.13,-608.96 365.56,-615.95"/>
</g>
<!-- src/app/not&#45;found.tsx -->
<g id="node31" class="node">
<title>src/app/not&#45;found.tsx</title>
<path fill="none" stroke="#cfffac" d="M199.83,-679C199.83,-679 72.17,-679 72.17,-679 68.33,-679 64.5,-675.17 64.5,-671.33 64.5,-671.33 64.5,-663.67 64.5,-663.67 64.5,-659.83 68.33,-656 72.17,-656 72.17,-656 199.83,-656 199.83,-656 203.67,-656 207.5,-659.83 207.5,-663.67 207.5,-663.67 207.5,-671.33 207.5,-671.33 207.5,-675.17 203.67,-679 199.83,-679"/>
<text text-anchor="middle" x="136" y="-663.8" font-family="Arial" font-size="14.00" fill="#cfffac">src/app/not&#45;found.tsx</text>
</g>
<!-- src/components/progress&#45;bar.tsx -->
<g id="node33" class="node">
<title>src/components/progress&#45;bar.tsx</title>
<path fill="none" stroke="#cfffac" d="M234.83,-720C234.83,-720 37.17,-720 37.17,-720 33.33,-720 29.5,-716.17 29.5,-712.33 29.5,-712.33 29.5,-704.67 29.5,-704.67 29.5,-700.83 33.33,-697 37.17,-697 37.17,-697 234.83,-697 234.83,-697 238.67,-697 242.5,-700.83 242.5,-704.67 242.5,-704.67 242.5,-712.33 242.5,-712.33 242.5,-716.17 238.67,-720 234.83,-720"/>
<text text-anchor="middle" x="136" y="-704.8" font-family="Arial" font-size="14.00" fill="#cfffac">src/components/progress&#45;bar.tsx</text>
</g>
<!-- src/components/theme&#45;provider.tsx -->
<g id="node34" class="node">
<title>src/components/theme&#45;provider.tsx</title>
<path fill="none" stroke="#cfffac" d="M242.33,-761C242.33,-761 29.67,-761 29.67,-761 25.83,-761 22,-757.17 22,-753.33 22,-753.33 22,-745.67 22,-745.67 22,-741.83 25.83,-738 29.67,-738 29.67,-738 242.33,-738 242.33,-738 246.17,-738 250,-741.83 250,-745.67 250,-745.67 250,-753.33 250,-753.33 250,-757.17 246.17,-761 242.33,-761"/>
<text text-anchor="middle" x="136" y="-745.8" font-family="Arial" font-size="14.00" fill="#cfffac">src/components/theme&#45;provider.tsx</text>
</g>
<!-- src/components/ui/alert&#45;dialog.tsx -->
<g id="node35" class="node">
<title>src/components/ui/alert&#45;dialog.tsx</title>
<path fill="none" stroke="#cfffac" d="M237.33,-802C237.33,-802 34.67,-802 34.67,-802 30.83,-802 27,-798.17 27,-794.33 27,-794.33 27,-786.67 27,-786.67 27,-782.83 30.83,-779 34.67,-779 34.67,-779 237.33,-779 237.33,-779 241.17,-779 245,-782.83 245,-786.67 245,-786.67 245,-794.33 245,-794.33 245,-798.17 241.17,-802 237.33,-802"/>
<text text-anchor="middle" x="136" y="-786.8" font-family="Arial" font-size="14.00" fill="#cfffac">src/components/ui/alert&#45;dialog.tsx</text>
</g>
<!-- src/components/ui/avatar.tsx -->
<g id="node36" class="node">
<title>src/components/ui/avatar.tsx</title>
<path fill="none" stroke="#cfffac" d="M222.33,-843C222.33,-843 49.67,-843 49.67,-843 45.83,-843 42,-839.17 42,-835.33 42,-835.33 42,-827.67 42,-827.67 42,-823.83 45.83,-820 49.67,-820 49.67,-820 222.33,-820 222.33,-820 226.17,-820 230,-823.83 230,-827.67 230,-827.67 230,-835.33 230,-835.33 230,-839.17 226.17,-843 222.33,-843"/>
<text text-anchor="middle" x="136" y="-827.8" font-family="Arial" font-size="14.00" fill="#cfffac">src/components/ui/avatar.tsx</text>
</g>
<!-- src/components/ui/button.tsx -->
<g id="node37" class="node">
<title>src/components/ui/button.tsx</title>
<path fill="none" stroke="#cfffac" d="M222.83,-884C222.83,-884 49.17,-884 49.17,-884 45.33,-884 41.5,-880.17 41.5,-876.33 41.5,-876.33 41.5,-868.67 41.5,-868.67 41.5,-864.83 45.33,-861 49.17,-861 49.17,-861 222.83,-861 222.83,-861 226.67,-861 230.5,-864.83 230.5,-868.67 230.5,-868.67 230.5,-876.33 230.5,-876.33 230.5,-880.17 226.67,-884 222.83,-884"/>
<text text-anchor="middle" x="136" y="-868.8" font-family="Arial" font-size="14.00" fill="#cfffac">src/components/ui/button.tsx</text>
</g>
<!-- src/components/ui/card.tsx -->
<g id="node38" class="node">
<title>src/components/ui/card.tsx</title>
<path fill="none" stroke="#cfffac" d="M217.33,-925C217.33,-925 54.67,-925 54.67,-925 50.83,-925 47,-921.17 47,-917.33 47,-917.33 47,-909.67 47,-909.67 47,-905.83 50.83,-902 54.67,-902 54.67,-902 217.33,-902 217.33,-902 221.17,-902 225,-905.83 225,-909.67 225,-909.67 225,-917.33 225,-917.33 225,-921.17 221.17,-925 217.33,-925"/>
<text text-anchor="middle" x="136" y="-909.8" font-family="Arial" font-size="14.00" fill="#cfffac">src/components/ui/card.tsx</text>
</g>
<!-- src/components/ui/dialog.tsx -->
<g id="node39" class="node">
<title>src/components/ui/dialog.tsx</title>
<path fill="none" stroke="#cfffac" d="M222.33,-966C222.33,-966 49.67,-966 49.67,-966 45.83,-966 42,-962.17 42,-958.33 42,-958.33 42,-950.67 42,-950.67 42,-946.83 45.83,-943 49.67,-943 49.67,-943 222.33,-943 222.33,-943 226.17,-943 230,-946.83 230,-950.67 230,-950.67 230,-958.33 230,-958.33 230,-962.17 226.17,-966 222.33,-966"/>
<text text-anchor="middle" x="136" y="-950.8" font-family="Arial" font-size="14.00" fill="#cfffac">src/components/ui/dialog.tsx</text>
</g>
<!-- src/components/ui/dropdown&#45;menu.tsx -->
<g id="node40" class="node">
<title>src/components/ui/dropdown&#45;menu.tsx</title>
<path fill="none" stroke="#cfffac" d="M253.33,-1007C253.33,-1007 18.67,-1007 18.67,-1007 14.83,-1007 11,-1003.17 11,-999.33 11,-999.33 11,-991.67 11,-991.67 11,-987.83 14.83,-984 18.67,-984 18.67,-984 253.33,-984 253.33,-984 257.17,-984 261,-987.83 261,-991.67 261,-991.67 261,-999.33 261,-999.33 261,-1003.17 257.17,-1007 253.33,-1007"/>
<text text-anchor="middle" x="136" y="-991.8" font-family="Arial" font-size="14.00" fill="#cfffac">src/components/ui/dropdown&#45;menu.tsx</text>
</g>
<!-- src/components/ui/form.tsx -->
<g id="node41" class="node">
<title>src/components/ui/form.tsx</title>
<path fill="none" stroke="#cfffac" d="M217.83,-1048C217.83,-1048 54.17,-1048 54.17,-1048 50.33,-1048 46.5,-1044.17 46.5,-1040.33 46.5,-1040.33 46.5,-1032.67 46.5,-1032.67 46.5,-1028.83 50.33,-1025 54.17,-1025 54.17,-1025 217.83,-1025 217.83,-1025 221.67,-1025 225.5,-1028.83 225.5,-1032.67 225.5,-1032.67 225.5,-1040.33 225.5,-1040.33 225.5,-1044.17 221.67,-1048 217.83,-1048"/>
<text text-anchor="middle" x="136" y="-1032.8" font-family="Arial" font-size="14.00" fill="#cfffac">src/components/ui/form.tsx</text>
</g>
<!-- src/components/ui/input.tsx -->
<g id="node42" class="node">
<title>src/components/ui/input.tsx</title>
<path fill="none" stroke="#cfffac" d="M562.33,-1089C562.33,-1089 396.67,-1089 396.67,-1089 392.83,-1089 389,-1085.17 389,-1081.33 389,-1081.33 389,-1073.67 389,-1073.67 389,-1069.83 392.83,-1066 396.67,-1066 396.67,-1066 562.33,-1066 562.33,-1066 566.17,-1066 570,-1069.83 570,-1073.67 570,-1073.67 570,-1081.33 570,-1081.33 570,-1085.17 566.17,-1089 562.33,-1089"/>
<text text-anchor="middle" x="479.5" y="-1073.8" font-family="Arial" font-size="14.00" fill="#cfffac">src/components/ui/input.tsx</text>
</g>
<!-- src/components/ui/label.tsx -->
<g id="node43" class="node">
<title>src/components/ui/label.tsx</title>
<path fill="none" stroke="#cfffac" d="M218.33,-1130C218.33,-1130 53.67,-1130 53.67,-1130 49.83,-1130 46,-1126.17 46,-1122.33 46,-1122.33 46,-1114.67 46,-1114.67 46,-1110.83 49.83,-1107 53.67,-1107 53.67,-1107 218.33,-1107 218.33,-1107 222.17,-1107 226,-1110.83 226,-1114.67 226,-1114.67 226,-1122.33 226,-1122.33 226,-1126.17 222.17,-1130 218.33,-1130"/>
<text text-anchor="middle" x="136" y="-1114.8" font-family="Arial" font-size="14.00" fill="#cfffac">src/components/ui/label.tsx</text>
</g>
<!-- src/components/ui/navigation&#45;menu.tsx -->
<g id="node44" class="node">
<title>src/components/ui/navigation&#45;menu.tsx</title>
<path fill="none" stroke="#cfffac" d="M254.33,-1171C254.33,-1171 17.67,-1171 17.67,-1171 13.83,-1171 10,-1167.17 10,-1163.33 10,-1163.33 10,-1155.67 10,-1155.67 10,-1151.83 13.83,-1148 17.67,-1148 17.67,-1148 254.33,-1148 254.33,-1148 258.17,-1148 262,-1151.83 262,-1155.67 262,-1155.67 262,-1163.33 262,-1163.33 262,-1167.17 258.17,-1171 254.33,-1171"/>
<text text-anchor="middle" x="136" y="-1155.8" font-family="Arial" font-size="14.00" fill="#cfffac">src/components/ui/navigation&#45;menu.tsx</text>
</g>
<!-- src/components/ui/password&#45;eye&#45;slash.tsx -->
<g id="node45" class="node">
<title>src/components/ui/password&#45;eye&#45;slash.tsx</title>
<path fill="none" stroke="#c6c5fe" d="M264.33,-1089C264.33,-1089 7.67,-1089 7.67,-1089 3.83,-1089 0,-1085.17 0,-1081.33 0,-1081.33 0,-1073.67 0,-1073.67 0,-1069.83 3.83,-1066 7.67,-1066 7.67,-1066 264.33,-1066 264.33,-1066 268.17,-1066 272,-1069.83 272,-1073.67 272,-1073.67 272,-1081.33 272,-1081.33 272,-1085.17 268.17,-1089 264.33,-1089"/>
<text text-anchor="middle" x="136" y="-1073.8" font-family="Arial" font-size="14.00" fill="#c6c5fe">src/components/ui/password&#45;eye&#45;slash.tsx</text>
</g>
<!-- src/components/ui/password&#45;eye&#45;slash.tsx&#45;&gt;src/components/ui/input.tsx -->
<g id="edge21" class="edge">
<title>src/components/ui/password&#45;eye&#45;slash.tsx&#45;&gt;src/components/ui/input.tsx</title>
<path fill="none" stroke="#757575" d="M272.46,-1077.5C307.9,-1077.5 345.46,-1077.5 378.67,-1077.5"/>
<polygon fill="#757575" stroke="#757575" points="378.83,-1081 388.83,-1077.5 378.83,-1074 378.83,-1081"/>
</g>
<!-- src/components/ui/select.tsx -->
<g id="node46" class="node">
<title>src/components/ui/select.tsx</title>
<path fill="none" stroke="#cfffac" d="M221.83,-1212C221.83,-1212 50.17,-1212 50.17,-1212 46.33,-1212 42.5,-1208.17 42.5,-1204.33 42.5,-1204.33 42.5,-1196.67 42.5,-1196.67 42.5,-1192.83 46.33,-1189 50.17,-1189 50.17,-1189 221.83,-1189 221.83,-1189 225.67,-1189 229.5,-1192.83 229.5,-1196.67 229.5,-1196.67 229.5,-1204.33 229.5,-1204.33 229.5,-1208.17 225.67,-1212 221.83,-1212"/>
<text text-anchor="middle" x="136" y="-1196.8" font-family="Arial" font-size="14.00" fill="#cfffac">src/components/ui/select.tsx</text>
</g>
<!-- src/components/ui/separator.tsx -->
<g id="node47" class="node">
<title>src/components/ui/separator.tsx</title>
<path fill="none" stroke="#cfffac" d="M232.33,-1253C232.33,-1253 39.67,-1253 39.67,-1253 35.83,-1253 32,-1249.17 32,-1245.33 32,-1245.33 32,-1237.67 32,-1237.67 32,-1233.83 35.83,-1230 39.67,-1230 39.67,-1230 232.33,-1230 232.33,-1230 236.17,-1230 240,-1233.83 240,-1237.67 240,-1237.67 240,-1245.33 240,-1245.33 240,-1249.17 236.17,-1253 232.33,-1253"/>
<text text-anchor="middle" x="136" y="-1237.8" font-family="Arial" font-size="14.00" fill="#cfffac">src/components/ui/separator.tsx</text>
</g>
<!-- src/components/ui/textarea.tsx -->
<g id="node48" class="node">
<title>src/components/ui/textarea.tsx</title>
<path fill="none" stroke="#cfffac" d="M228.33,-1294C228.33,-1294 43.67,-1294 43.67,-1294 39.83,-1294 36,-1290.17 36,-1286.33 36,-1286.33 36,-1278.67 36,-1278.67 36,-1274.83 39.83,-1271 43.67,-1271 43.67,-1271 228.33,-1271 228.33,-1271 232.17,-1271 236,-1274.83 236,-1278.67 236,-1278.67 236,-1286.33 236,-1286.33 236,-1290.17 232.17,-1294 228.33,-1294"/>
<text text-anchor="middle" x="136" y="-1278.8" font-family="Arial" font-size="14.00" fill="#cfffac">src/components/ui/textarea.tsx</text>
</g>
<!-- src/components/ui/toast.tsx -->
<g id="node49" class="node">
<title>src/components/ui/toast.tsx</title>
<path fill="none" stroke="#cfffac" d="M218.83,-1335C218.83,-1335 53.17,-1335 53.17,-1335 49.33,-1335 45.5,-1331.17 45.5,-1327.33 45.5,-1327.33 45.5,-1319.67 45.5,-1319.67 45.5,-1315.83 49.33,-1312 53.17,-1312 53.17,-1312 218.83,-1312 218.83,-1312 222.67,-1312 226.5,-1315.83 226.5,-1319.67 226.5,-1319.67 226.5,-1327.33 226.5,-1327.33 226.5,-1331.17 222.67,-1335 218.83,-1335"/>
<text text-anchor="middle" x="136" y="-1319.8" font-family="Arial" font-size="14.00" fill="#cfffac">src/components/ui/toast.tsx</text>
</g>
<!-- src/components/ui/toaster.tsx -->
<g id="node50" class="node">
<title>src/components/ui/toaster.tsx</title>
<path fill="none" stroke="#cfffac" d="M224.33,-1376C224.33,-1376 47.67,-1376 47.67,-1376 43.83,-1376 40,-1372.17 40,-1368.33 40,-1368.33 40,-1360.67 40,-1360.67 40,-1356.83 43.83,-1353 47.67,-1353 47.67,-1353 224.33,-1353 224.33,-1353 228.17,-1353 232,-1356.83 232,-1360.67 232,-1360.67 232,-1368.33 232,-1368.33 232,-1372.17 228.17,-1376 224.33,-1376"/>
<text text-anchor="middle" x="136" y="-1360.8" font-family="Arial" font-size="14.00" fill="#cfffac">src/components/ui/toaster.tsx</text>
</g>
<!-- src/components/ui/typography.tsx -->
<g id="node51" class="node">
<title>src/components/ui/typography.tsx</title>
<path fill="none" stroke="#cfffac" d="M237.33,-1417C237.33,-1417 34.67,-1417 34.67,-1417 30.83,-1417 27,-1413.17 27,-1409.33 27,-1409.33 27,-1401.67 27,-1401.67 27,-1397.83 30.83,-1394 34.67,-1394 34.67,-1394 237.33,-1394 237.33,-1394 241.17,-1394 245,-1397.83 245,-1401.67 245,-1401.67 245,-1409.33 245,-1409.33 245,-1413.17 241.17,-1417 237.33,-1417"/>
<text text-anchor="middle" x="136" y="-1401.8" font-family="Arial" font-size="14.00" fill="#cfffac">src/components/ui/typography.tsx</text>
</g>
<!-- src/contexts/user.store.ts -->
<g id="node52" class="node">
<title>src/contexts/user.store.ts</title>
<path fill="none" stroke="#cfffac" d="M211.33,-1458C211.33,-1458 60.67,-1458 60.67,-1458 56.83,-1458 53,-1454.17 53,-1450.33 53,-1450.33 53,-1442.67 53,-1442.67 53,-1438.83 56.83,-1435 60.67,-1435 60.67,-1435 211.33,-1435 211.33,-1435 215.17,-1435 219,-1438.83 219,-1442.67 219,-1442.67 219,-1450.33 219,-1450.33 219,-1454.17 215.17,-1458 211.33,-1458"/>
<text text-anchor="middle" x="136" y="-1442.8" font-family="Arial" font-size="14.00" fill="#cfffac">src/contexts/user.store.ts</text>
</g>
<!-- src/lib/api.ts -->
<g id="node53" class="node">
<title>src/lib/api.ts</title>
<path fill="none" stroke="#c6c5fe" d="M1190.33,-1469C1190.33,-1469 1117.67,-1469 1117.67,-1469 1113.83,-1469 1110,-1465.17 1110,-1461.33 1110,-1461.33 1110,-1453.67 1110,-1453.67 1110,-1449.83 1113.83,-1446 1117.67,-1446 1117.67,-1446 1190.33,-1446 1190.33,-1446 1194.17,-1446 1198,-1449.83 1198,-1453.67 1198,-1453.67 1198,-1461.33 1198,-1461.33 1198,-1465.17 1194.17,-1469 1190.33,-1469"/>
<text text-anchor="middle" x="1154" y="-1453.8" font-family="Arial" font-size="14.00" fill="#c6c5fe">src/lib/api.ts</text>
</g>
<!-- src/lib/logger.ts -->
<g id="node54" class="node">
<title>src/lib/logger.ts</title>
<path fill="none" stroke="#cfffac" d="M1389.33,-1469C1389.33,-1469 1297.67,-1469 1297.67,-1469 1293.83,-1469 1290,-1465.17 1290,-1461.33 1290,-1461.33 1290,-1453.67 1290,-1453.67 1290,-1449.83 1293.83,-1446 1297.67,-1446 1297.67,-1446 1389.33,-1446 1389.33,-1446 1393.17,-1446 1397,-1449.83 1397,-1453.67 1397,-1453.67 1397,-1461.33 1397,-1461.33 1397,-1465.17 1393.17,-1469 1389.33,-1469"/>
<text text-anchor="middle" x="1343.5" y="-1453.8" font-family="Arial" font-size="14.00" fill="#cfffac">src/lib/logger.ts</text>
</g>
<!-- src/lib/api.ts&#45;&gt;src/lib/logger.ts -->
<g id="edge22" class="edge">
<title>src/lib/api.ts&#45;&gt;src/lib/logger.ts</title>
<path fill="none" stroke="#757575" d="M1198.02,-1457.5C1222.27,-1457.5 1253.01,-1457.5 1279.89,-1457.5"/>
<polygon fill="#757575" stroke="#757575" points="1279.99,-1461 1289.99,-1457.5 1279.99,-1454 1279.99,-1461"/>
</g>
<!-- src/lib/auth&#45;calls.ts -->
<g id="node55" class="node">
<title>src/lib/auth&#45;calls.ts</title>
<path fill="none" stroke="#c6c5fe" d="M908.83,-1450C908.83,-1450 796.17,-1450 796.17,-1450 792.33,-1450 788.5,-1446.17 788.5,-1442.33 788.5,-1442.33 788.5,-1434.67 788.5,-1434.67 788.5,-1430.83 792.33,-1427 796.17,-1427 796.17,-1427 908.83,-1427 908.83,-1427 912.67,-1427 916.5,-1430.83 916.5,-1434.67 916.5,-1434.67 916.5,-1442.33 916.5,-1442.33 916.5,-1446.17 912.67,-1450 908.83,-1450"/>
<text text-anchor="middle" x="852.5" y="-1434.8" font-family="Arial" font-size="14.00" fill="#c6c5fe">src/lib/auth&#45;calls.ts</text>
</g>
<!-- src/lib/auth&#45;calls.ts&#45;&gt;src/lib/api.ts -->
<g id="edge23" class="edge">
<title>src/lib/auth&#45;calls.ts&#45;&gt;src/lib/api.ts</title>
<path fill="none" stroke="#757575" d="M916.65,-1442.51C970.92,-1445.95 1048.31,-1450.86 1099.56,-1454.11"/>
<polygon fill="#757575" stroke="#757575" points="1099.56,-1457.62 1109.76,-1454.76 1100,-1450.63 1099.56,-1457.62"/>
</g>
<!-- src/lib/auth.ts -->
<g id="node56" class="node">
<title>src/lib/auth.ts</title>
<path fill="none" stroke="#c6c5fe" d="M519.83,-1469C519.83,-1469 439.17,-1469 439.17,-1469 435.33,-1469 431.5,-1465.17 431.5,-1461.33 431.5,-1461.33 431.5,-1453.67 431.5,-1453.67 431.5,-1449.83 435.33,-1446 439.17,-1446 439.17,-1446 519.83,-1446 519.83,-1446 523.67,-1446 527.5,-1449.83 527.5,-1453.67 527.5,-1453.67 527.5,-1461.33 527.5,-1461.33 527.5,-1465.17 523.67,-1469 519.83,-1469"/>
<text text-anchor="middle" x="479.5" y="-1453.8" font-family="Arial" font-size="14.00" fill="#c6c5fe">src/lib/auth.ts</text>
</g>
<!-- src/lib/auth.ts&#45;&gt;src/lib/api.ts -->
<g id="edge24" class="edge">
<title>src/lib/auth.ts&#45;&gt;src/lib/api.ts</title>
<path fill="none" stroke="#757575" d="M527.66,-1457.79C569.51,-1458.04 632.33,-1458.37 687,-1458.5 834.11,-1458.86 870.89,-1459.04 1018,-1458.5 1044.87,-1458.4 1074.74,-1458.19 1099.54,-1457.99"/>
<polygon fill="#757575" stroke="#757575" points="1099.86,-1461.48 1109.83,-1457.9 1099.8,-1454.48 1099.86,-1461.48"/>
</g>
<!-- src/lib/auth.ts&#45;&gt;src/lib/logger.ts -->
<g id="edge26" class="edge">
<title>src/lib/auth.ts&#45;&gt;src/lib/logger.ts</title>
<path fill="none" stroke="#757575" d="M526.47,-1445.97C568.08,-1436.17 631.2,-1422.85 687,-1417.5 937.99,-1393.42 1004.95,-1397.16 1254,-1436.5 1265.58,-1438.33 1277.89,-1440.86 1289.53,-1443.54"/>
<polygon fill="#757575" stroke="#757575" points="1289.01,-1447.02 1299.55,-1445.92 1290.63,-1440.2 1289.01,-1447.02"/>
</g>
<!-- src/lib/auth.ts&#45;&gt;src/lib/auth&#45;calls.ts -->
<g id="edge25" class="edge">
<title>src/lib/auth.ts&#45;&gt;src/lib/auth&#45;calls.ts</title>
<path fill="none" stroke="#757575" d="M527.86,-1455.07C591.11,-1451.84 703.79,-1446.06 778.08,-1442.26"/>
<polygon fill="#757575" stroke="#757575" points="778.5,-1445.74 788.3,-1441.74 778.14,-1438.75 778.5,-1445.74"/>
</g>
<!-- src/lib/utils.ts -->
<g id="node57" class="node">
<title>src/lib/utils.ts</title>
<path fill="none" stroke="#cfffac" d="M175.33,-1540C175.33,-1540 96.67,-1540 96.67,-1540 92.83,-1540 89,-1536.17 89,-1532.33 89,-1532.33 89,-1524.67 89,-1524.67 89,-1520.83 92.83,-1517 96.67,-1517 96.67,-1517 175.33,-1517 175.33,-1517 179.17,-1517 183,-1520.83 183,-1524.67 183,-1524.67 183,-1532.33 183,-1532.33 183,-1536.17 179.17,-1540 175.33,-1540"/>
<text text-anchor="middle" x="136" y="-1524.8" font-family="Arial" font-size="14.00" fill="#cfffac">src/lib/utils.ts</text>
</g>
<!-- src/middleware.ts -->
<g id="node58" class="node">
<title>src/middleware.ts</title>
<path fill="none" stroke="#c6c5fe" d="M189.33,-1499C189.33,-1499 82.67,-1499 82.67,-1499 78.83,-1499 75,-1495.17 75,-1491.33 75,-1491.33 75,-1483.67 75,-1483.67 75,-1479.83 78.83,-1476 82.67,-1476 82.67,-1476 189.33,-1476 189.33,-1476 193.17,-1476 197,-1479.83 197,-1483.67 197,-1483.67 197,-1491.33 197,-1491.33 197,-1495.17 193.17,-1499 189.33,-1499"/>
<text text-anchor="middle" x="136" y="-1483.8" font-family="Arial" font-size="14.00" fill="#c6c5fe">src/middleware.ts</text>
</g>
<!-- src/middleware.ts&#45;&gt;src/lib/logger.ts -->
<g id="edge28" class="edge">
<title>src/middleware.ts&#45;&gt;src/lib/logger.ts</title>
<path fill="none" stroke="#757575" d="M197.22,-1491.45C365.18,-1501.5 852.83,-1524.08 1254,-1477.5 1265.74,-1476.14 1278.2,-1473.86 1289.95,-1471.31"/>
<polygon fill="#757575" stroke="#757575" points="1291.07,-1474.64 1300.05,-1469.02 1289.53,-1467.82 1291.07,-1474.64"/>
</g>
<!-- src/middleware.ts&#45;&gt;src/lib/auth.ts -->
<g id="edge27" class="edge">
<title>src/middleware.ts&#45;&gt;src/lib/auth.ts</title>
<path fill="none" stroke="#757575" d="M197.27,-1482.21C260.57,-1476.64 359.38,-1467.96 421.44,-1462.51"/>
<polygon fill="#757575" stroke="#757575" points="421.8,-1465.99 431.46,-1461.63 421.19,-1459.02 421.8,-1465.99"/>
</g>
<!-- src/types/api.ts -->
<g id="node59" class="node">
<title>src/types/api.ts</title>
<path fill="none" stroke="#cfffac" d="M181.83,-1581C181.83,-1581 90.17,-1581 90.17,-1581 86.33,-1581 82.5,-1577.17 82.5,-1573.33 82.5,-1573.33 82.5,-1565.67 82.5,-1565.67 82.5,-1561.83 86.33,-1558 90.17,-1558 90.17,-1558 181.83,-1558 181.83,-1558 185.67,-1558 189.5,-1561.83 189.5,-1565.67 189.5,-1565.67 189.5,-1573.33 189.5,-1573.33 189.5,-1577.17 185.67,-1581 181.83,-1581"/>
<text text-anchor="middle" x="136" y="-1565.8" font-family="Arial" font-size="14.00" fill="#cfffac">src/types/api.ts</text>
</g>
</g>
</svg>
