<svg width="2461" height="2610" viewBox="0 0 2461 2610" fill="none" xmlns="http://www.w3.org/2000/svg">
<path d="M0 1646.42L1230 0V1646.42V2610L0 1646.42Z" fill="#292FAE"/>
<path d="M2461 1646.42L1230 0V1646.42V2610L2461 1646.42Z" fill="#3137D1"/>
<path d="M1182.92 2153.84C1144.49 2139.92 1098.12 2100.17 1078.91 2063.08C1055.06 2017.36 1057.05 1945.82 1083.54 1888.84C1104.08 1846.44 1104.08 1845.12 1090.83 1835.18C1083.54 1829.88 995.434 1780.86 896.062 1727.2C796.689 1673.54 709.904 1626.5 703.942 1623.19C695.992 1618.55 682.742 1623.19 658.893 1638.42C581.382 1687.45 500.559 1682.15 436.961 1623.19C391.25 1580.79 378 1550.98 378 1490.03C378 1431.07 389.925 1400.59 427.686 1362.83C478.697 1311.82 546.933 1294.59 612.519 1316.46C648.293 1328.38 648.956 1328.38 671.48 1311.16C697.979 1291.28 910.637 1097.17 1013.32 999.79L1084.21 932.217L1063.01 887.83C1019.95 798.395 1041.81 699.022 1117.33 639.399C1158.41 606.937 1188.88 597 1247.84 597C1385.64 597 1481.7 741.421 1430.02 870.606C1416.11 906.38 1416.11 907.042 1429.36 928.904C1440.62 948.116 1632.08 1179.32 1733.44 1297.24C1751.33 1317.78 1771.2 1334.34 1777.83 1334.34C1784.45 1334.34 1806.98 1327.72 1828.18 1319.77C1926.89 1280.68 2030.9 1324.41 2071.97 1422.45C2098.47 1485.39 2075.28 1570.19 2018.97 1621.2C1979.22 1656.97 1950.07 1668.24 1897.07 1668.24C1859.98 1668.24 1846.06 1664.26 1806.98 1643.06C1777.83 1627.16 1755.3 1619.21 1746.03 1621.86C1730.13 1625.84 1485.67 1793.44 1431.35 1837.17C1398.22 1864.33 1395.57 1874.27 1412.8 1914.68C1429.36 1954.43 1427.37 2016.7 1408.82 2055.79C1388.29 2098.85 1337.28 2141.91 1292.89 2155.16C1247.84 2167.75 1220.68 2167.75 1182.92 2153.84ZM1194.18 1423.78V1046.16L948.5 1396.96C936.575 1381.06 1149.79 987.865 1147.81 987.865C1139.19 987.865 711.229 1376.74 711.229 1384.69C711.229 1386.68 1186.23 1402.58 1194.18 1423.78C1194.84 1405.89 1202.13 1445.64 1194.18 1423.78C1193.52 1441.67 738.391 1536.4 738.391 1543.03C739.053 1558.26 882.15 1649.69 1096.79 1773.57C1155.76 1808.02 1176.29 1816.63 1183.58 1810.67C1192.19 1803.38 1194.18 1729.85 1194.18 1423.78ZM1375.7 1757.67C1659.24 1579.46 1712.24 1543.69 1715.55 1530.44C1717.54 1522.49 1259.1 1453.59 1259.77 1422.45L1722.84 1404.57L1578.42 1232.98C1423.4 1049.48 1366.42 987.203 1353.18 987.203C1348.54 987.203 1511.85 1397.74 1488 1413.64L1257.78 1045.5L1259.77 1422.45C1261.75 1760.32 1264.4 1817.29 1276.99 1817.29C1278.31 1817.96 1323.36 1790.79 1375.7 1757.67Z" fill="white"/>
<path d="M1194.18 1423.78V1046.16L948.5 1396.96C936.575 1381.06 1149.79 987.865 1147.81 987.865C1139.19 987.865 711.229 1376.74 711.229 1384.69C711.229 1386.68 1186.23 1402.58 1194.18 1423.78ZM1194.18 1423.78C1202.13 1445.64 1194.84 1405.89 1194.18 1423.78ZM1194.18 1423.78C1193.52 1441.67 738.391 1536.4 738.391 1543.03C739.053 1558.26 882.15 1649.69 1096.79 1773.57C1155.76 1808.02 1176.29 1816.63 1183.58 1810.67C1192.19 1803.38 1194.18 1729.85 1194.18 1423.78ZM1259.77 1422.45C1259.1 1453.59 1717.54 1522.49 1715.55 1530.44C1712.24 1543.69 1659.24 1579.46 1375.7 1757.67C1323.36 1790.79 1278.31 1817.96 1276.99 1817.29C1264.4 1817.29 1261.75 1760.32 1259.77 1422.45ZM1259.77 1422.45L1722.84 1404.57L1578.42 1232.98C1423.4 1049.48 1366.42 987.203 1353.18 987.203C1348.54 987.203 1511.85 1397.74 1488 1413.64L1257.78 1045.5L1259.77 1422.45ZM1182.92 2153.84C1144.49 2139.92 1098.12 2100.17 1078.91 2063.08C1055.06 2017.36 1057.05 1945.82 1083.54 1888.84C1104.08 1846.44 1104.08 1845.12 1090.83 1835.18C1083.54 1829.88 995.434 1780.86 896.062 1727.2C796.689 1673.54 709.904 1626.5 703.942 1623.19C695.992 1618.55 682.742 1623.19 658.893 1638.42C581.382 1687.45 500.559 1682.15 436.961 1623.19C391.25 1580.79 378 1550.98 378 1490.03C378 1431.07 389.925 1400.59 427.686 1362.83C478.697 1311.82 546.933 1294.59 612.519 1316.46C648.293 1328.38 648.956 1328.38 671.48 1311.16C697.979 1291.28 910.637 1097.17 1013.32 999.79L1084.21 932.217L1063.01 887.83C1019.95 798.395 1041.81 699.022 1117.33 639.399C1158.41 606.937 1188.88 597 1247.84 597C1385.64 597 1481.7 741.421 1430.02 870.606C1416.11 906.38 1416.11 907.042 1429.36 928.904C1440.62 948.116 1632.08 1179.32 1733.44 1297.24C1751.33 1317.78 1771.2 1334.34 1777.83 1334.34C1784.45 1334.34 1806.98 1327.72 1828.18 1319.77C1926.89 1280.68 2030.9 1324.41 2071.97 1422.45C2098.47 1485.39 2075.28 1570.19 2018.97 1621.2C1979.22 1656.97 1950.07 1668.24 1897.07 1668.24C1859.98 1668.24 1846.06 1664.26 1806.98 1643.06C1777.83 1627.16 1755.3 1619.21 1746.03 1621.86C1730.13 1625.84 1485.67 1793.44 1431.35 1837.17C1398.22 1864.33 1395.57 1874.27 1412.8 1914.68C1429.36 1954.43 1427.37 2016.7 1408.82 2055.79C1388.29 2098.85 1337.28 2141.91 1292.89 2155.16C1247.84 2167.75 1220.68 2167.75 1182.92 2153.84Z" stroke="white" stroke-width="8.18631" stroke-linecap="round" stroke-linejoin="round"/>
</svg>
