<svg width="2473" height="2623" viewBox="0 0 2473 2623" fill="none" xmlns="http://www.w3.org/2000/svg">
<path d="M6 1653.42L1236 7V2617L6 1653.42Z" fill="#09090B"/>
<path d="M2467 1653.42L1236 7V2617L2467 1653.42Z" fill="#17171C"/>
<path d="M1188.92 2160.84C1150.49 2146.92 1104.12 2107.17 1084.91 2070.08C1061.06 2024.36 1063.05 1952.82 1089.54 1895.84C1110.08 1853.44 1110.08 1852.12 1096.83 1842.18C1089.54 1836.88 1001.43 1787.86 902.062 1734.2C802.689 1680.54 715.904 1633.5 709.942 1630.19C701.992 1625.55 688.742 1630.19 664.893 1645.42C587.382 1694.45 506.559 1689.15 442.961 1630.19C397.25 1587.79 384 1557.98 384 1497.03C384 1438.07 395.925 1407.59 433.686 1369.83C484.697 1318.82 552.933 1301.59 618.519 1323.46C654.293 1335.38 654.956 1335.38 677.48 1318.16C703.979 1298.28 916.637 1104.17 1019.32 1006.79L1090.21 939.217L1069.01 894.83C1025.95 805.395 1047.81 706.022 1123.33 646.399C1164.41 613.937 1194.88 604 1253.84 604C1391.64 604 1487.7 748.421 1436.02 877.606C1422.11 913.38 1422.11 914.042 1435.36 935.904C1446.62 955.116 1638.08 1186.32 1739.44 1304.24C1757.33 1324.78 1777.2 1341.34 1783.83 1341.34C1790.45 1341.34 1812.98 1334.72 1834.18 1326.77C1932.89 1287.68 2036.9 1331.41 2077.97 1429.45C2104.47 1492.39 2081.28 1577.19 2024.97 1628.2C1985.22 1663.97 1956.07 1675.24 1903.07 1675.24C1865.97 1675.24 1852.06 1671.26 1812.98 1650.06C1783.83 1634.16 1761.3 1626.21 1752.03 1628.86C1736.13 1632.84 1491.67 1800.44 1437.35 1844.17C1404.22 1871.33 1401.57 1881.27 1418.8 1921.68C1435.36 1961.43 1433.37 2023.7 1414.82 2062.79C1394.29 2105.85 1343.28 2148.91 1298.89 2162.16C1253.84 2174.75 1226.68 2174.75 1188.92 2160.84ZM1200.18 1430.78V1053.16L954.5 1403.96C942.575 1388.06 1155.79 994.865 1153.81 994.865C1145.19 994.865 717.229 1383.74 717.229 1391.69C717.229 1393.68 1192.23 1409.58 1200.18 1430.78C1208.13 1452.64 1200.84 1412.89 1200.18 1430.78C1199.52 1448.67 744.391 1543.4 744.391 1550.03C745.053 1565.26 888.15 1656.69 1102.79 1780.57C1161.76 1815.02 1182.29 1823.63 1189.58 1817.67C1198.19 1810.38 1200.18 1736.85 1200.18 1430.78ZM1381.7 1764.67C1665.24 1586.46 1718.24 1550.69 1721.55 1537.44C1723.54 1529.49 1265.1 1460.59 1265.77 1429.45L1728.84 1411.57L1584.42 1239.98C1429.4 1056.48 1372.42 994.203 1359.18 994.203C1354.54 994.203 1517.85 1404.74 1494 1420.64L1263.78 1052.5L1265.77 1429.45C1267.75 1767.32 1270.4 1824.29 1282.99 1824.29C1284.31 1824.96 1329.36 1797.79 1381.7 1764.67Z" fill="white"/>
<path d="M6 1653.42L2.72088 1650.97L0.326618 1654.17L3.47578 1656.64L6 1653.42ZM1236 7L1239.28 4.54897L1236 0.16276L1232.72 4.55025L1236 7ZM1236 2617L1233.48 2620.22L1236 2622.2L1238.52 2620.22L1236 2617ZM2467 1653.42L2469.52 1656.64L2472.68 1654.17L2470.28 1650.97L2467 1653.42ZM1188.92 2160.84L1190.33 2157C1190.33 2156.99 1190.32 2156.99 1190.31 2156.99L1188.92 2160.84ZM1084.91 2070.08L1088.54 2068.19L1088.54 2068.18L1084.91 2070.08ZM1089.54 1895.84L1085.86 1894.06C1085.85 1894.08 1085.84 1894.1 1085.83 1894.12L1089.54 1895.84ZM1096.83 1842.18L1099.29 1838.91C1099.27 1838.89 1099.26 1838.88 1099.24 1838.87L1096.83 1842.18ZM709.942 1630.19L707.879 1633.72C707.904 1633.74 707.929 1633.75 707.954 1633.76L709.942 1630.19ZM664.893 1645.42L667.081 1648.88C667.086 1648.88 667.091 1648.88 667.097 1648.87L664.893 1645.42ZM442.961 1630.19L440.177 1633.19L440.178 1633.19L442.961 1630.19ZM433.686 1369.83L436.581 1372.73L436.581 1372.73L433.686 1369.83ZM618.519 1323.46L617.225 1327.34L617.225 1327.34L618.519 1323.46ZM677.48 1318.16L675.024 1314.88C675.014 1314.89 675.004 1314.9 674.994 1314.91L677.48 1318.16ZM1019.32 1006.79L1022.14 1009.76L1022.15 1009.75L1019.32 1006.79ZM1090.21 939.217L1093.03 942.179C1094.31 940.958 1094.66 939.05 1093.9 937.452L1090.21 939.217ZM1069.01 894.83L1072.7 893.066L1072.7 893.054L1069.01 894.83ZM1123.33 646.399L1125.87 649.612L1125.87 649.61L1123.33 646.399ZM1436.02 877.606L1432.22 876.085C1432.22 876.098 1432.21 876.11 1432.21 876.122L1436.02 877.606ZM1435.36 935.904L1438.89 933.834C1438.88 933.817 1438.87 933.8 1438.86 933.783L1435.36 935.904ZM1739.44 1304.24L1736.34 1306.91C1736.34 1306.92 1736.35 1306.93 1736.35 1306.93L1739.44 1304.24ZM1834.18 1326.77L1835.61 1330.6C1835.64 1330.59 1835.66 1330.58 1835.68 1330.57L1834.18 1326.77ZM2077.97 1429.45L2074.19 1431.04L2074.2 1431.04L2077.97 1429.45ZM2024.97 1628.2L2027.71 1631.24L2027.72 1631.23L2024.97 1628.2ZM1812.98 1650.06L1811.02 1653.65L1811.02 1653.66L1812.98 1650.06ZM1752.03 1628.86L1753.02 1632.83C1753.06 1632.82 1753.11 1632.81 1753.15 1632.8L1752.03 1628.86ZM1437.35 1844.17L1434.78 1840.98C1434.77 1840.99 1434.76 1841 1434.75 1841L1437.35 1844.17ZM1418.8 1921.68L1422.58 1920.11C1422.57 1920.09 1422.57 1920.08 1422.56 1920.07L1418.8 1921.68ZM1414.82 2062.79L1418.52 2064.55L1418.52 2064.54L1414.82 2062.79ZM1298.89 2162.16L1299.99 2166.1C1300.01 2166.1 1300.04 2166.09 1300.06 2166.08L1298.89 2162.16ZM1204.27 1430.78C1204.27 1428.52 1202.44 1426.69 1200.18 1426.69C1197.92 1426.69 1196.09 1428.52 1196.09 1430.78H1204.27ZM1200.18 1053.16H1204.27C1204.27 1051.38 1203.11 1049.8 1201.41 1049.26C1199.71 1048.72 1197.85 1049.35 1196.83 1050.82L1200.18 1053.16ZM954.5 1403.96L951.225 1406.42C952.013 1407.47 953.255 1408.08 954.567 1408.05C955.878 1408.03 957.1 1407.38 957.853 1406.31L954.5 1403.96ZM744.391 1550.03H740.298C740.298 1550.09 740.299 1550.14 740.302 1550.2L744.391 1550.03ZM1102.79 1780.57L1104.86 1777.04C1104.85 1777.03 1104.85 1777.03 1104.84 1777.03L1102.79 1780.57ZM1189.58 1817.67L1192.17 1820.84C1192.19 1820.82 1192.21 1820.81 1192.22 1820.79L1189.58 1817.67ZM1381.7 1764.67L1379.52 1761.21L1379.51 1761.21L1381.7 1764.67ZM1721.55 1537.44L1725.52 1538.43L1725.52 1538.43L1721.55 1537.44ZM1728.84 1411.57L1729 1415.66C1730.56 1415.6 1731.95 1414.65 1732.58 1413.22C1733.22 1411.79 1732.98 1410.13 1731.97 1408.93L1728.84 1411.57ZM1584.42 1239.98L1587.55 1237.35L1587.55 1237.34L1584.42 1239.98ZM1494 1420.64L1490.53 1422.81C1491.12 1423.75 1492.06 1424.41 1493.14 1424.64C1494.22 1424.87 1495.35 1424.66 1496.27 1424.04L1494 1420.64ZM1263.78 1052.5L1267.25 1050.33C1266.28 1048.78 1264.4 1048.06 1262.64 1048.57C1260.88 1049.08 1259.68 1050.69 1259.68 1052.52L1263.78 1052.5ZM1282.99 1824.29L1284.82 1820.63C1284.25 1820.35 1283.63 1820.2 1282.99 1820.2V1824.29ZM9.27912 1655.87L1239.28 9.44975L1232.72 4.55025L2.72088 1650.97L9.27912 1655.87ZM1238.52 2613.78L8.52422 1650.2L3.47578 1656.64L1233.48 2620.22L1238.52 2613.78ZM2470.28 1650.97L1239.28 4.54897L1232.72 9.45103L2463.72 1655.87L2470.28 1650.97ZM1238.52 2620.22L2469.52 1656.64L2464.48 1650.2L1233.48 2613.78L1238.52 2620.22ZM1190.31 2156.99C1171.7 2150.25 1150.93 2137.15 1132.39 2121.06C1113.85 2104.97 1097.84 2086.15 1088.54 2068.19L1081.27 2071.96C1091.18 2091.1 1107.97 2110.7 1127.02 2127.24C1146.09 2143.78 1167.71 2157.51 1187.52 2164.68L1190.31 2156.99ZM1088.54 2068.18C1065.41 2023.85 1067.16 1953.68 1093.26 1897.57L1085.83 1894.12C1058.93 1951.96 1056.71 2024.87 1081.28 2071.97L1088.54 2068.18ZM1093.23 1897.63C1098.35 1887.05 1102.25 1878.93 1104.97 1872.58C1107.67 1866.31 1109.38 1861.41 1109.92 1857.38C1110.49 1853.08 1109.74 1849.58 1107.51 1846.43C1105.53 1843.63 1102.48 1841.3 1099.29 1838.91L1094.38 1845.46C1097.81 1848.03 1099.73 1849.6 1100.83 1851.16C1101.69 1852.38 1102.14 1853.73 1101.8 1856.3C1101.42 1859.14 1100.12 1863.15 1097.45 1869.35C1094.81 1875.49 1091.01 1883.44 1085.86 1894.06L1093.23 1897.63ZM1099.24 1838.87C1097.18 1837.38 1090.04 1833.17 1079.33 1827.06C1068.47 1820.87 1053.65 1812.56 1035.97 1802.75C1000.59 1783.11 953.705 1757.43 904.007 1730.59L900.117 1737.8C949.791 1764.62 996.648 1790.29 1031.99 1809.9C1049.67 1819.71 1064.45 1828.01 1075.27 1834.17C1086.23 1840.42 1092.84 1844.34 1094.42 1845.49L1099.24 1838.87ZM904.007 1730.59C804.617 1676.92 717.864 1629.91 711.93 1626.61L707.954 1633.76C713.944 1637.09 800.762 1684.15 900.117 1737.8L904.007 1730.59ZM712.004 1626.65C706.514 1623.45 699.79 1623.84 692.059 1626.48C684.29 1629.13 674.678 1634.31 662.689 1641.97L667.097 1648.87C678.957 1641.3 687.895 1636.55 694.7 1634.23C701.544 1631.89 705.42 1632.29 707.879 1633.72L712.004 1626.65ZM662.705 1641.96C624.553 1666.09 585.821 1676.71 548.987 1674.22C512.174 1671.72 476.931 1656.1 445.744 1627.18L440.178 1633.19C472.589 1663.24 509.557 1679.75 548.433 1682.38C587.288 1685.02 627.722 1673.78 667.081 1648.88L662.705 1641.96ZM445.744 1627.19C423.074 1606.16 408.786 1588.55 400.081 1568.9C391.381 1549.27 388.093 1527.22 388.093 1497.03H379.907C379.907 1527.78 383.244 1551.11 392.596 1572.22C401.945 1593.32 417.136 1611.82 440.177 1633.19L445.744 1627.19ZM388.093 1497.03C388.093 1467.8 391.054 1446.01 398.495 1426.97C405.923 1407.96 417.942 1391.36 436.581 1372.73L430.792 1366.94C411.669 1386.06 398.845 1403.58 390.87 1423.99C382.908 1444.37 379.907 1467.29 379.907 1497.03H388.093ZM436.581 1372.73C486.562 1322.74 553.196 1306 617.225 1327.34L619.813 1319.57C552.67 1297.19 482.833 1314.9 430.792 1366.94L436.581 1372.73ZM617.225 1327.34C626.121 1330.31 633.021 1332.59 638.632 1334.04C644.255 1335.5 648.922 1336.21 653.331 1335.81C662.214 1335.03 669.023 1329.78 679.966 1321.41L674.994 1314.91C663.412 1323.76 658.629 1327.13 652.606 1327.66C649.561 1327.93 645.948 1327.48 640.681 1326.12C635.403 1324.75 628.804 1322.57 619.813 1319.57L617.225 1327.34ZM679.936 1321.43C693.389 1311.34 753.383 1257.65 822.589 1194.56C891.911 1131.37 970.768 1058.48 1022.14 1009.76L1016.5 1003.82C965.19 1052.49 886.376 1125.34 817.074 1188.51C747.654 1251.8 688.071 1305.1 675.024 1314.88L679.936 1321.43ZM1022.15 1009.75L1093.03 942.179L1087.38 936.254L1016.5 1003.83L1022.15 1009.75ZM1093.9 937.452L1072.7 893.066L1065.31 896.594L1086.51 940.981L1093.9 937.452ZM1072.7 893.054C1030.43 805.275 1051.91 707.999 1125.87 649.612L1120.8 643.186C1043.71 704.046 1021.46 805.515 1065.32 896.606L1072.7 893.054ZM1125.87 649.61C1146.17 633.566 1163.63 623.263 1183.14 616.919C1202.69 610.564 1224.57 608.093 1253.84 608.093V599.907C1224.15 599.907 1201.31 602.405 1180.61 609.134C1159.88 615.873 1141.57 626.77 1120.79 643.188L1125.87 649.61ZM1253.84 608.093C1388.66 608.093 1482.85 749.518 1432.22 876.085L1439.82 879.126C1492.54 747.324 1394.61 599.907 1253.84 599.907V608.093ZM1432.21 876.122C1428.75 885.027 1426.09 891.903 1424.29 897.478C1422.5 903.055 1421.46 907.633 1421.41 911.926C1421.32 920.69 1425.4 927.374 1431.86 938.026L1438.86 933.783C1432.07 922.572 1429.53 917.994 1429.6 912.018C1429.63 908.941 1430.38 905.279 1432.08 899.987C1433.79 894.693 1436.35 888.071 1439.84 879.089L1432.21 876.122ZM1431.83 937.974C1433.4 940.658 1437.82 946.613 1444.27 954.92C1450.8 963.339 1459.62 974.429 1470.18 987.547C1491.31 1013.79 1519.48 1048.19 1550.46 1085.67C1612.41 1160.62 1685.63 1247.92 1736.34 1306.91L1742.54 1301.58C1691.89 1242.64 1618.7 1155.38 1556.77 1080.45C1525.8 1042.99 1497.66 1008.61 1476.56 982.412C1466.01 969.31 1457.23 958.264 1450.74 949.901C1444.16 941.426 1440.13 935.953 1438.89 933.834L1431.83 937.974ZM1736.35 1306.93C1745.42 1317.34 1755.01 1326.77 1763.23 1333.64C1767.34 1337.06 1771.17 1339.91 1774.48 1341.93C1776.14 1342.94 1777.73 1343.78 1779.21 1344.38C1780.63 1344.96 1782.24 1345.44 1783.83 1345.44V1337.25C1783.83 1337.25 1783.8 1337.25 1783.73 1337.24C1783.65 1337.23 1783.55 1337.21 1783.41 1337.18C1783.13 1337.11 1782.76 1336.99 1782.29 1336.8C1781.35 1336.42 1780.16 1335.81 1778.74 1334.94C1775.9 1333.21 1772.41 1330.63 1768.48 1327.35C1760.64 1320.8 1751.35 1311.69 1742.53 1301.56L1736.35 1306.93ZM1783.83 1345.44C1785.97 1345.44 1789 1344.93 1792.39 1344.18C1795.88 1343.41 1800.07 1342.31 1804.68 1340.97C1813.9 1338.29 1824.93 1334.61 1835.61 1330.6L1832.74 1322.94C1822.23 1326.88 1811.39 1330.49 1802.39 1333.11C1797.89 1334.42 1793.88 1335.47 1790.63 1336.19C1787.27 1336.93 1785 1337.25 1783.83 1337.25V1345.44ZM1835.68 1330.57C1932.32 1292.31 2033.98 1335.04 2074.19 1431.04L2081.74 1427.87C2039.81 1327.77 1933.45 1283.06 1832.67 1322.96L1835.68 1330.57ZM2074.2 1431.04C2099.91 1492.11 2077.47 1575.12 2022.22 1625.17L2027.72 1631.23C2085.09 1579.26 2109.03 1492.67 2081.74 1427.87L2074.2 1431.04ZM2022.23 1625.16C2002.56 1642.86 1985.76 1654.27 1967.52 1661.31C1949.27 1668.36 1929.29 1671.14 1903.07 1671.14V1679.33C1929.86 1679.33 1950.95 1676.48 1970.47 1668.95C1989.98 1661.42 2007.63 1649.31 2027.71 1631.24L2022.23 1625.16ZM1903.07 1671.14C1884.66 1671.14 1872.34 1670.15 1859.88 1666.66C1847.35 1663.15 1834.44 1657.05 1814.93 1646.46L1811.02 1653.66C1830.6 1664.28 1844.19 1670.76 1857.67 1674.54C1871.2 1678.33 1884.39 1679.33 1903.07 1679.33V1671.14ZM1814.94 1646.47C1800.25 1638.46 1787.12 1632.38 1776.4 1628.64C1771.04 1626.77 1766.2 1625.45 1762.01 1624.78C1757.9 1624.12 1754.06 1624.02 1750.9 1624.93L1753.15 1632.8C1754.63 1632.37 1757.09 1632.28 1760.72 1632.86C1764.27 1633.43 1768.62 1634.6 1773.7 1636.37C1783.85 1639.91 1796.56 1645.77 1811.02 1653.65L1814.94 1646.47ZM1751.04 1624.89C1749.45 1625.29 1747.1 1626.45 1744.51 1627.86C1741.76 1629.36 1738.22 1631.42 1734.04 1633.96C1725.68 1639.04 1714.57 1646.12 1701.56 1654.6C1675.52 1671.58 1641.74 1694.29 1606.78 1718.23C1536.92 1766.08 1462.09 1819 1434.78 1840.98L1439.91 1847.36C1466.93 1825.61 1541.49 1772.87 1611.41 1724.99C1646.34 1701.06 1680.06 1678.39 1706.03 1661.46C1719.01 1652.99 1730.04 1645.97 1738.29 1640.96C1742.43 1638.45 1745.83 1636.46 1748.43 1635.05C1749.73 1634.34 1750.79 1633.8 1751.61 1633.41C1752.03 1633.22 1752.36 1633.08 1752.61 1632.98C1752.74 1632.93 1752.84 1632.89 1752.91 1632.87C1752.99 1632.84 1753.02 1632.83 1753.02 1632.83L1751.04 1624.89ZM1434.75 1841C1418.32 1854.48 1408.23 1864.55 1405.21 1876.99C1402.2 1889.42 1406.48 1903.23 1415.03 1923.28L1422.56 1920.07C1413.89 1899.72 1410.88 1888.35 1413.17 1878.92C1415.45 1869.5 1423.25 1861.02 1439.94 1847.33L1434.75 1841ZM1415.02 1923.25C1423.02 1942.45 1426.62 1967.34 1425.89 1992.36C1425.15 2017.38 1420.1 2042.13 1411.13 2061.03L1418.52 2064.54C1428.1 2044.36 1433.31 2018.43 1434.07 1992.6C1434.83 1966.78 1431.14 1940.66 1422.58 1920.11L1415.02 1923.25ZM1411.13 2061.03C1401.17 2081.91 1383.7 2103 1363.14 2120.54C1342.59 2138.08 1319.23 2151.82 1297.72 2158.24L1300.06 2166.08C1322.93 2159.25 1347.28 2144.84 1368.46 2126.77C1389.64 2108.7 1407.94 2086.73 1418.52 2064.55L1411.13 2061.03ZM1297.79 2158.22C1275.45 2164.46 1257.81 2167.5 1241.21 2167.34C1224.65 2167.18 1208.89 2163.83 1190.33 2157L1187.5 2164.68C1206.71 2171.75 1223.41 2175.36 1241.13 2175.53C1258.81 2175.7 1277.28 2172.45 1299.99 2166.1L1297.79 2158.22ZM1204.27 1430.78V1053.16H1196.09V1430.78H1204.27ZM1196.83 1050.82L951.147 1401.61L957.853 1406.31L1203.53 1055.51L1196.83 1050.82ZM957.775 1401.51C958.317 1402.23 958.07 1402.64 958.117 1401.57C958.154 1400.74 958.348 1399.47 958.774 1397.71C959.619 1394.21 961.224 1389.36 963.546 1383.28C968.177 1371.15 975.469 1354.59 984.598 1335.07C1002.85 1296.04 1028.29 1245.46 1054.07 1195.32C1079.84 1145.2 1105.92 1095.57 1125.45 1058.46C1135.21 1039.91 1143.33 1024.47 1148.95 1013.68C1151.76 1008.29 1153.96 1004.04 1155.42 1001.12C1156.15 999.674 1156.72 998.521 1157.09 997.714C1157.27 997.326 1157.44 996.939 1157.57 996.613C1157.61 996.487 1157.73 996.18 1157.81 995.821C1157.83 995.718 1157.96 995.164 1157.89 994.467C1157.83 994.045 1157.46 993 1157.09 992.415C1156.42 991.714 1154.73 990.878 1153.81 990.772V998.958C1152.88 998.852 1151.2 998.019 1150.54 997.324C1150.18 996.745 1149.81 995.709 1149.75 995.299C1149.68 994.626 1149.8 994.108 1149.82 994.053C1149.87 993.788 1149.94 993.624 1149.92 993.687C1149.9 993.739 1149.83 993.917 1149.66 994.273C1149.34 994.955 1148.83 996.012 1148.11 997.446C1146.67 1000.3 1144.5 1004.51 1141.69 1009.9C1136.08 1020.67 1127.97 1036.08 1118.2 1054.64C1098.68 1091.76 1072.58 1141.42 1046.79 1191.58C1021 1241.73 995.498 1292.43 977.182 1331.6C968.031 1351.17 960.637 1367.94 955.898 1380.36C953.535 1386.55 951.784 1391.78 950.816 1395.79C950.335 1397.78 950.009 1399.62 949.939 1401.21C949.879 1402.56 949.938 1404.7 951.225 1406.42L957.775 1401.51ZM1153.81 990.772C1152.94 990.772 1152.26 991.037 1152.01 991.134C1151.67 991.27 1151.36 991.431 1151.11 991.57C1150.6 991.852 1150.04 992.217 1149.46 992.616C1148.3 993.426 1146.77 994.58 1144.95 996.023C1141.28 998.919 1136.2 1003.14 1129.92 1008.47C1117.36 1019.15 1099.92 1034.39 1079.24 1052.69C1037.89 1089.28 983.576 1138.16 929.535 1187.27C875.493 1236.38 821.714 1285.75 781.44 1323.34C761.306 1342.14 744.531 1358 732.782 1369.42C726.912 1375.13 722.267 1379.76 719.077 1383.1C717.489 1384.76 716.214 1386.16 715.317 1387.23C714.875 1387.76 714.462 1388.28 714.138 1388.77C713.979 1389 713.784 1389.32 713.615 1389.67C713.503 1389.9 713.136 1390.68 713.136 1391.69H721.322C721.322 1392.58 721.007 1393.19 720.999 1393.2C720.933 1393.34 720.894 1393.39 720.94 1393.32C721.028 1393.19 721.229 1392.92 721.597 1392.48C722.32 1391.62 723.449 1390.37 724.998 1388.75C728.081 1385.52 732.639 1380.98 738.488 1375.29C750.177 1363.93 766.904 1348.11 787.026 1329.33C827.264 1291.77 881.014 1242.43 935.04 1193.33C989.067 1144.23 1043.36 1095.38 1084.67 1058.82C1105.33 1040.53 1122.73 1025.33 1135.22 1014.71C1141.48 1009.39 1146.47 1005.25 1150.02 1002.45C1151.8 1001.04 1153.17 1000.01 1154.13 999.345C1154.61 999.009 1154.92 998.816 1155.09 998.724C1155.17 998.676 1155.15 998.696 1155.04 998.738C1155.04 998.741 1154.54 998.958 1153.81 998.958V990.772ZM713.136 1391.69C713.231 1392.57 713.816 1393.96 714.203 1394.45C714.486 1394.74 715.007 1395.14 715.232 1395.28C715.647 1395.51 716.016 1395.63 716.142 1395.66C716.455 1395.76 716.747 1395.81 716.905 1395.83C717.27 1395.89 717.719 1395.95 718.189 1395.99C719.157 1396.09 720.545 1396.19 722.295 1396.31C725.808 1396.54 730.941 1396.83 737.445 1397.16C750.46 1397.83 769.058 1398.7 791.38 1399.75C836.035 1401.85 895.64 1404.68 955.488 1408.12C1015.35 1411.55 1075.4 1415.59 1120.96 1420.08C1143.76 1422.33 1162.84 1424.69 1176.42 1427.12C1183.23 1428.35 1188.53 1429.57 1192.17 1430.76C1194.01 1431.36 1195.27 1431.9 1196.05 1432.35C1197.01 1432.9 1196.62 1432.95 1196.35 1432.22L1204.01 1429.34C1203.24 1427.28 1201.45 1426.01 1200.14 1425.26C1198.66 1424.41 1196.8 1423.66 1194.72 1422.98C1190.53 1421.61 1184.8 1420.31 1177.87 1419.07C1163.96 1416.57 1144.62 1414.19 1121.77 1411.93C1076.03 1407.42 1015.84 1403.38 955.958 1399.94C896.062 1396.51 836.42 1393.67 791.764 1391.57C769.431 1390.52 750.857 1389.65 737.864 1388.99C731.365 1388.65 726.284 1388.37 722.836 1388.14C721.105 1388.03 719.825 1387.93 718.995 1387.85C718.566 1387.8 718.334 1387.77 718.242 1387.76C718.171 1387.75 718.292 1387.76 718.489 1387.82C718.558 1387.84 718.883 1387.94 719.27 1388.16C719.48 1388.28 719.99 1388.68 720.266 1388.95C720.645 1389.44 721.227 1390.82 721.322 1391.69H713.136ZM1204.27 1430.93C1204.31 1429.89 1204.37 1429.12 1204.44 1428.58C1204.47 1428.32 1204.5 1428.13 1204.53 1428.01C1204.55 1427.89 1204.56 1427.88 1204.53 1427.96C1204.52 1428.01 1204.4 1428.32 1204.11 1428.7C1203.8 1429.08 1203.09 1429.79 1201.89 1430.03C1201.3 1430.14 1200.74 1430.11 1200.24 1429.99C1199.75 1429.87 1199.38 1429.67 1199.12 1429.51C1198.63 1429.19 1198.37 1428.86 1198.3 1428.76C1198.21 1428.64 1198.18 1428.57 1198.19 1428.6C1198.21 1428.63 1198.24 1428.69 1198.29 1428.81C1198.39 1429.05 1198.51 1429.4 1198.64 1429.85C1198.91 1430.75 1199.18 1431.88 1199.38 1433.01C1199.59 1434.15 1199.72 1435.17 1199.76 1435.89C1199.78 1436.26 1199.77 1436.42 1199.77 1436.41C1199.77 1436.41 1199.78 1436.24 1199.87 1435.98C1199.92 1435.84 1200 1435.62 1200.14 1435.37C1200.28 1435.12 1200.53 1434.76 1200.93 1434.41C1201.34 1434.05 1201.91 1433.71 1202.61 1433.55C1203.31 1433.38 1203.96 1433.43 1204.48 1433.57C1204.98 1433.7 1205.34 1433.91 1205.57 1434.06C1205.8 1434.21 1205.96 1434.35 1206.06 1434.44C1206.23 1434.61 1206.3 1434.73 1206.27 1434.68C1206.25 1434.65 1206.19 1434.56 1206.09 1434.38C1205.9 1434.02 1205.63 1433.45 1205.27 1432.6C1204.92 1431.77 1204.51 1430.7 1204.03 1429.38L1196.33 1432.18C1196.85 1433.59 1197.31 1434.78 1197.72 1435.77C1198.13 1436.75 1198.52 1437.58 1198.89 1438.26C1199.07 1438.6 1199.27 1438.94 1199.48 1439.26C1199.68 1439.56 1199.96 1439.93 1200.32 1440.29C1200.51 1440.47 1200.75 1440.69 1201.07 1440.89C1201.38 1441.1 1201.83 1441.34 1202.4 1441.49C1202.99 1441.64 1203.7 1441.7 1204.47 1441.52C1205.23 1441.34 1205.86 1440.97 1206.33 1440.56C1206.78 1440.17 1207.07 1439.75 1207.26 1439.42C1207.44 1439.09 1207.57 1438.78 1207.64 1438.54C1207.8 1438.07 1207.87 1437.63 1207.9 1437.32C1207.97 1436.69 1207.97 1436.03 1207.93 1435.45C1207.87 1434.27 1207.68 1432.88 1207.43 1431.53C1207.19 1430.18 1206.86 1428.75 1206.49 1427.51C1206.3 1426.89 1206.09 1426.27 1205.86 1425.7C1205.74 1425.41 1205.61 1425.11 1205.45 1424.82C1205.3 1424.53 1205.11 1424.19 1204.85 1423.85C1204.62 1423.54 1204.2 1423.04 1203.56 1422.63C1203.22 1422.41 1202.76 1422.18 1202.2 1422.04C1201.63 1421.9 1200.98 1421.86 1200.32 1421.99C1198.97 1422.26 1198.12 1423.07 1197.68 1423.63C1197.24 1424.18 1197 1424.74 1196.86 1425.12C1196.7 1425.53 1196.6 1425.94 1196.52 1426.33C1196.43 1426.72 1196.37 1427.13 1196.31 1427.56C1196.21 1428.42 1196.13 1429.44 1196.09 1430.63L1204.27 1430.93ZM1196.09 1430.63C1196.12 1429.83 1196.45 1429.35 1196.5 1429.27C1196.56 1429.19 1196.53 1429.26 1196.26 1429.48C1195.71 1429.92 1194.71 1430.54 1193.13 1431.33C1190 1432.89 1185.28 1434.76 1179.07 1436.9C1166.7 1441.16 1148.98 1446.33 1127.62 1452.07C1084.93 1463.55 1028.03 1477.27 971.101 1490.64C914.23 1504 857.227 1517.04 814.573 1527.13C793.231 1532.18 775.409 1536.5 762.911 1539.77C756.674 1541.41 751.699 1542.8 748.26 1543.89C746.559 1544.43 745.122 1544.94 744.066 1545.4C743.561 1545.62 742.972 1545.9 742.45 1546.25C742.197 1546.41 741.791 1546.71 741.405 1547.15C741.076 1547.52 740.298 1548.52 740.298 1550.03H748.484C748.484 1551.43 747.761 1552.32 747.542 1552.56C747.267 1552.88 747.026 1553.03 746.992 1553.06C746.907 1553.11 746.971 1553.06 747.327 1552.91C747.994 1552.62 749.112 1552.21 750.745 1551.69C753.972 1550.66 758.777 1549.32 764.985 1547.69C777.38 1544.45 795.119 1540.14 816.457 1535.1C859.159 1525 915.979 1512 972.973 1498.61C1029.91 1485.24 1086.92 1471.5 1129.75 1459.98C1151.15 1454.22 1169.09 1449 1181.74 1444.64C1188.04 1442.46 1193.16 1440.46 1196.78 1438.66C1198.56 1437.77 1200.16 1436.84 1201.37 1435.87C1201.98 1435.39 1202.62 1434.79 1203.14 1434.07C1203.65 1433.36 1204.22 1432.29 1204.27 1430.93L1196.09 1430.63ZM740.302 1550.2C740.4 1552.46 741.666 1554.56 742.876 1556.2C744.21 1558 746.072 1560.01 748.35 1562.19C752.919 1566.55 759.552 1571.97 768.03 1578.33C785.012 1591.07 809.766 1607.86 841.138 1628C903.902 1668.3 993.4 1722.16 1100.75 1784.12L1104.84 1777.03C997.544 1715.1 908.171 1661.31 845.561 1621.11C814.245 1601.01 789.686 1584.34 772.943 1571.78C764.559 1565.49 758.227 1560.3 754.005 1556.27C751.888 1554.24 750.398 1552.6 749.458 1551.33C748.394 1549.89 748.465 1549.49 748.48 1549.85L740.302 1550.2ZM1100.73 1784.1C1130.2 1801.32 1150.28 1812.21 1163.96 1818.04C1170.78 1820.95 1176.28 1822.71 1180.7 1823.29C1185.14 1823.87 1189.12 1823.33 1192.17 1820.84L1186.99 1814.5C1186.39 1814.99 1185.07 1815.61 1181.77 1815.17C1178.45 1814.74 1173.76 1813.32 1167.17 1810.51C1154.02 1804.91 1134.35 1794.27 1104.86 1777.04L1100.73 1784.1ZM1192.22 1820.79C1194.35 1818.99 1195.57 1815.92 1196.46 1812.56C1197.42 1808.96 1198.23 1804.06 1198.94 1797.63C1200.35 1784.75 1201.41 1765.17 1202.2 1736.38C1203.78 1678.76 1204.27 1583.8 1204.27 1430.78H1196.09C1196.09 1583.83 1195.59 1678.67 1194.02 1736.15C1193.23 1764.92 1192.18 1784.21 1190.8 1796.74C1190.11 1803.01 1189.35 1807.44 1188.55 1810.46C1188.15 1811.96 1187.77 1813.01 1187.43 1813.71C1187.08 1814.44 1186.87 1814.6 1186.94 1814.54L1192.22 1820.79ZM1383.88 1768.14C1525.64 1679.04 1609.82 1625.51 1658.99 1592.6C1683.56 1576.15 1699.49 1564.78 1709.51 1556.65C1714.51 1552.59 1718.15 1549.25 1720.68 1546.43C1723.16 1543.65 1724.87 1541.05 1725.52 1538.43L1717.58 1536.45C1717.41 1537.14 1716.74 1538.55 1714.58 1540.97C1712.47 1543.33 1709.21 1546.35 1704.35 1550.29C1694.64 1558.17 1678.98 1569.36 1654.44 1585.79C1605.39 1618.63 1521.31 1672.09 1379.52 1761.21L1383.88 1768.14ZM1725.52 1538.43C1725.86 1537.08 1725.48 1535.93 1725.06 1535.19C1724.67 1534.52 1724.18 1534.08 1723.88 1533.84C1723.28 1533.35 1722.6 1533.01 1722.1 1532.79C1721.02 1532.3 1719.57 1531.82 1717.9 1531.33C1714.51 1530.34 1709.58 1529.15 1703.39 1527.8C1690.98 1525.08 1673.19 1521.6 1651.84 1517.57C1609.1 1509.5 1552.07 1499.18 1494.93 1488.12C1437.8 1477.07 1380.72 1465.31 1338 1454.38C1316.61 1448.91 1298.96 1443.68 1286.73 1438.9C1280.59 1436.49 1276.02 1434.28 1273.07 1432.31C1271.59 1431.32 1270.69 1430.5 1270.2 1429.9C1269.7 1429.29 1269.86 1429.2 1269.86 1429.54L1261.67 1429.37C1261.62 1431.65 1262.64 1433.58 1263.84 1435.06C1265.05 1436.55 1266.68 1437.89 1268.52 1439.12C1272.21 1441.58 1277.42 1444.04 1283.75 1446.52C1296.46 1451.49 1314.5 1456.82 1335.97 1462.31C1378.95 1473.3 1436.23 1485.1 1493.38 1496.16C1550.52 1507.22 1607.69 1517.56 1650.32 1525.61C1671.67 1529.65 1689.36 1533.1 1701.64 1535.79C1707.79 1537.14 1712.5 1538.28 1715.61 1539.19C1717.19 1539.65 1718.2 1540.01 1718.74 1540.25C1719.04 1540.39 1718.96 1540.39 1718.74 1540.21C1718.63 1540.12 1718.28 1539.83 1717.97 1539.29C1717.63 1538.7 1717.28 1537.67 1717.58 1536.45L1725.52 1538.43ZM1265.92 1433.54L1729 1415.66L1728.68 1407.48L1265.61 1425.36L1265.92 1433.54ZM1731.97 1408.93L1587.55 1237.35L1581.29 1242.62L1725.71 1414.2L1731.97 1408.93ZM1587.55 1237.34C1510.04 1145.59 1456.99 1084.09 1421.65 1045.51C1403.99 1026.24 1390.68 1012.6 1380.9 1003.76C1376.03 999.352 1371.93 996.046 1368.55 993.819C1365.37 991.721 1362.14 990.109 1359.18 990.109V998.296C1359.52 998.296 1360.97 998.63 1364.05 1000.65C1366.93 1002.55 1370.67 1005.54 1375.41 1009.84C1384.89 1018.41 1398 1031.81 1415.62 1051.04C1450.83 1089.48 1503.78 1150.87 1581.29 1242.63L1587.55 1237.34ZM1359.18 990.109C1358.1 990.109 1357.07 990.523 1356.3 991.268C1355.62 991.917 1355.33 992.632 1355.2 993.031C1354.96 993.784 1354.98 994.445 1354.99 994.67C1355.01 995.247 1355.13 995.834 1355.23 996.267C1355.44 997.218 1355.8 998.507 1356.28 1000.03C1357.24 1003.12 1358.77 1007.6 1360.76 1013.24C1364.74 1024.52 1370.66 1040.65 1377.8 1060.01C1392.09 1098.76 1411.31 1150.55 1429.94 1202.83C1448.57 1255.13 1466.56 1307.84 1478.41 1348.45C1484.34 1368.77 1488.7 1385.93 1490.83 1398.44C1491.9 1404.72 1492.38 1409.63 1492.27 1413.11C1492.22 1414.85 1492.03 1416.04 1491.79 1416.79C1491.55 1417.57 1491.39 1417.46 1491.73 1417.23L1496.27 1424.04C1498.1 1422.82 1499.07 1420.95 1499.6 1419.24C1500.15 1417.5 1500.39 1415.49 1500.46 1413.35C1500.58 1409.07 1500 1403.53 1498.9 1397.06C1496.68 1384.08 1492.23 1366.55 1486.27 1346.15C1474.35 1305.31 1456.29 1252.41 1437.65 1200.08C1419 1147.75 1399.76 1095.91 1385.48 1057.18C1378.33 1037.81 1372.44 1021.74 1368.47 1010.51C1366.49 1004.89 1365.01 1000.53 1364.1 997.602C1363.63 996.117 1363.35 995.098 1363.22 994.495C1363.14 994.151 1363.16 994.149 1363.17 994.331C1363.17 994.358 1363.2 994.87 1363 995.524C1362.88 995.873 1362.61 996.55 1361.96 997.175C1361.21 997.895 1360.21 998.296 1359.18 998.296V990.109ZM1497.47 1418.47L1267.25 1050.33L1260.31 1054.67L1490.53 1422.81L1497.47 1418.47ZM1259.68 1052.52L1261.67 1429.48L1269.86 1429.43L1267.87 1052.48L1259.68 1052.52ZM1261.67 1429.48C1262.67 1598.38 1263.83 1697.18 1266.31 1753.75C1267.56 1781.99 1269.14 1799.94 1271.25 1810.89C1272.3 1816.31 1273.54 1820.41 1275.17 1823.23C1276.88 1826.2 1279.44 1828.39 1282.99 1828.39V1820.2C1282.99 1820.2 1283.02 1820.2 1283.07 1820.22C1283.12 1820.23 1283.13 1820.25 1283.1 1820.22C1283.02 1820.17 1282.71 1819.91 1282.26 1819.14C1281.33 1817.53 1280.29 1814.53 1279.29 1809.34C1277.3 1799.04 1275.73 1781.64 1274.49 1753.39C1272.01 1697.01 1270.85 1598.39 1269.86 1429.43L1261.67 1429.48ZM1281.16 1827.96C1282.19 1828.47 1283.13 1828.41 1283.39 1828.39C1283.78 1828.36 1284.09 1828.28 1284.28 1828.23C1284.66 1828.13 1285.03 1828 1285.3 1827.88C1285.87 1827.65 1286.56 1827.32 1287.32 1826.93C1288.87 1826.14 1291.01 1824.97 1293.63 1823.47C1298.91 1820.48 1306.34 1816.09 1315.33 1810.66C1333.33 1799.79 1357.7 1784.7 1383.89 1768.13L1379.51 1761.21C1353.36 1777.76 1329.04 1792.82 1311.1 1803.65C1302.13 1809.07 1294.77 1813.41 1289.59 1816.36C1286.99 1817.83 1284.98 1818.93 1283.61 1819.63C1282.91 1819.99 1282.45 1820.2 1282.19 1820.31C1282.04 1820.37 1282.07 1820.35 1282.2 1820.32C1282.26 1820.3 1282.48 1820.25 1282.78 1820.22C1282.95 1820.21 1283.83 1820.14 1284.82 1820.63L1281.16 1827.96ZM1231.91 7V2617H1240.09V7H1231.91Z" fill="white"/>
</svg>
